SplineFontDB: 3.2
FontName: Segment7Standard
FullName: Segment7
FamilyName: Segment7
Weight: Standard
Copyright: Strictly seven-segment (plus point) calculator display face, fixed-width and free.  (c) Cedric Knight 2014.  Licensed under SIL Open Font Licence v1.1.  Reserved name: Segment7.
Version: 
ItalicAngle: -3
UnderlinePosition: 0
UnderlineWidth: 0
Ascent: 800
Descent: 200
InvalidEm: 0
sfntRevision: 0x00010000
LayerCount: 2
Layer: 0 0 "Back" 1
Layer: 1 0 "Fore" 0
XUID: [1021 529 -1452314064 6938706]
BaseHoriz: 0
StyleMap: 0x0001
FSType: 8
OS2Version: 3
OS2_WeightWidthSlopeOnly: 0
OS2_UseTypoMetrics: 0
CreationTime: 1401560787
ModificationTime: 1611683937
PfmFamily: 17
TTFWeight: 600
TTFWidth: 5
LineGap: 90
VLineGap: 0
Panose: 2 0 5 9 0 0 0 0 0 0
OS2TypoAscent: 800
OS2TypoAOffset: 0
OS2TypoDescent: -200
OS2TypoDOffset: 0
OS2TypoLinegap: 90
OS2WinAscent: 800
OS2WinAOffset: 0
OS2WinDescent: 200
OS2WinDOffset: 0
HheadAscent: 800
HheadAOffset: 0
HheadDescent: -200
HheadDOffset: 0
OS2SubXSize: 650
OS2SubYSize: 699
OS2SubXOff: 7
OS2SubYOff: 140
OS2SupXSize: 650
OS2SupYSize: 699
OS2SupXOff: -25
OS2SupYOff: 479
OS2StrikeYSize: 49
OS2StrikeYPos: 258
OS2CapHeight: 450
OS2XHeight: 450
OS2Vendor: 'PfEd'
OS2CodePages: 00000001.00000000
OS2UnicodeRanges: 00000003.00000000.00000000.00000000
Lookup: 1 8 0 "Single Substitution lookup 0" { "Single Substitution lookup 0 subtable"  } []
Lookup: 257 0 0 "Single Positioning lookup 0" { "Single Positioning lookup 0 subtable"  } []
Lookup: 258 0 0 "'kern' Horizontal Kerning lookup 1" { "'kern' Horizontal Kerning lookup 1 subtable"  } ['kern' ('DFLT' <'dflt' > ) ]
MarkAttachClasses: 3
"MarkClass-1" 49 zero one two three four five six seven eight nine
"MarkClass-2" 64 question A E N X a b c d e f g h i j k l m n o p q r t u v w x y
DEI: 91125
LangName: 1033 "" "" "" "FontForge 2.0 : Segment7 : 7-6-2014"
Encoding: UnicodeBmp
UnicodeInterp: none
NameList: AGL For New Fonts
DisplaySize: -48
AntiAlias: 1
FitToEm: 0
WinInfo: 0 78 30

StartChar: .notdef
Encoding: 65536 -1 0
Width: 585
Flags: MW
HStem: 0 50<100 485 100 535> 483 50<100 485 100 100>
VStem: 50 50<50 50 50 483> 485 50<50 483 483 483>
LayerCount: 2
Fore
SplineSet
50 0 m 1
 50 533 l 1
 535 533 l 1
 535 0 l 1
 50 0 l 1
100 50 m 1
 485 50 l 1
 485 483 l 1
 100 483 l 1
 100 50 l 1
EndSplineSet
Validated: 1
EndChar

StartChar: uni0000
Encoding: 0 -1 1
AltUni2: 000000.ffffffff.0
Width: 585
Flags: MW
HStem: -200 1000<0 977 0 977>
VStem: 0 977<-200 800 -200 800>
LayerCount: 2
Fore
SplineSet
0 -200 m 1
 0 800 l 1
 977 800 l 1
 977 -200 l 1
 0 -200 l 1
EndSplineSet
Validated: 1
EndChar

StartChar: exclam
Encoding: 33 33 34
Width: 585
Flags: MW
HStem: -21 100<549 573> 416 21<479 479> 742 20<525 525>
VStem: 423 107 513 95<15 43>
LayerCount: 2
Fore
SplineSet
525 762 m 1x70
 527 757 530 751 530 746 c 0
 525 647 519 552 514 453 c 1
 479 416 l 1
 423 458 l 1
 435 672 l 1
 525 762 l 1x70
563 79 m 0x88
 588 79 608 58 608 30 c 0
 608 0 587 -21 559 -21 c 0
 534 -21 513 0 513 28 c 0
 513 58 535 79 563 79 c 0x88
EndSplineSet
Validated: 1
EndChar

StartChar: quotedbl
Encoding: 34 34 35
Width: 585
Flags: MW
HStem: 416 21G<77 77 479 479> 697 20G<82 82> 697 20G<82 82> 742 20G<525 525>
LayerCount: 2
Fore
SplineSet
82 717 m 1xd0
 168 661 l 1
 156 463 l 1
 77 416 l 1
 66 440 l 1
 82 717 l 1xd0
525 762 m 1
 527 757 530 751 530 746 c 0
 525 647 519 552 514 453 c 1
 479 416 l 1
 423 458 l 1
 435 672 l 1
 525 762 l 1
EndSplineSet
Validated: 1
EndChar

StartChar: numbersign
Encoding: 35 35 36
Width: 585
Flags: MW
HStem: -2 94<139 146 75 400 146 288 288 400 139 460> 355 95<172 405 172 406 158 405> 416 21<479 479> 742 20<525 525>
LayerCount: 2
Fore
SplineSet
139 92 m 1x80
 400 92 l 1
 421 66 444 36 465 10 c 0
 468 7 470 5 470 3 c 0
 470 0 467 -2 460 -2 c 2
 288 -2 l 1
 146 -2 l 1
 75 -2 l 1
 68 7 61 15 54 24 c 0
 51 27 47 30 47 35 c 2
 47 36 l 1
 139 92 l 1x80
172 450 m 1xc0
 405 450 l 1
 470 399 l 1
 406 355 l 1
 158 355 l 1
 137 374 113 389 92 406 c 1
 172 450 l 1xc0
525 762 m 1xb0
 527 757 530 751 530 746 c 0
 525 647 519 552 514 453 c 1
 479 416 l 1
 423 458 l 1
 435 672 l 1
 525 762 l 1xb0
EndSplineSet
Validated: 1
EndChar

StartChar: dollar
Encoding: 36 36 37
Width: 585
Flags: MW
HStem: -2 94<139 146 75 400 146 288 288 400 139 460> 36 21<47 47 472 472> 416 21<77 77> 685 95<155 423 155 168> 697 20<82 82>
LayerCount: 2
Fore
SplineSet
139 92 m 1xa0
 400 92 l 1
 421 66 444 36 465 10 c 0
 468 7 470 5 470 3 c 0
 470 0 467 -2 460 -2 c 2
 288 -2 l 1
 146 -2 l 1
 75 -2 l 1xa0
 68 7 61 15 54 24 c 0
 51 27 47 30 47 35 c 2
 47 36 l 1x60
 139 92 l 1xa0
82 717 m 1x28
 168 661 l 1
 156 463 l 1
 77 416 l 1
 66 440 l 1
 82 717 l 1x28
155 780 m 1x30
 514 775 l 1
 423 685 l 1
 168 685 l 1
 88 735 l 1
 155 780 l 1x30
475 388 m 1
 509 350 l 1
 490 62 l 1
 472 36 l 1x60
 406 115 l 1
 418 342 l 1
 475 388 l 1
EndSplineSet
Validated: 1
EndChar

StartChar: percent
Encoding: 37 37 38
Width: 585
Flags: MW
HStem: -2 94<139 146 75 400 146 288 288 400 139 460> 36 21G<47 47 472 472> 416 21G<77 77> 685 95<155 423 155 168> 697 20G<82 82> 697 20G<82 82>
LayerCount: 2
Fore
SplineSet
139 92 m 1xa0
 400 92 l 1
 421 66 444 36 465 10 c 0
 468 7 470 5 470 3 c 0
 470 0 467 -2 460 -2 c 2
 288 -2 l 1
 146 -2 l 1
 75 -2 l 1xa0
 68 7 61 15 54 24 c 0
 51 27 47 30 47 35 c 2
 47 36 l 1x60
 139 92 l 1xa0
82 717 m 1x28
 168 661 l 1
 156 463 l 1
 77 416 l 1
 66 440 l 1
 82 717 l 1x28
155 780 m 1x30
 514 775 l 1
 423 685 l 1
 168 685 l 1
 88 735 l 1
 155 780 l 1x30
475 388 m 1
 509 350 l 1
 490 62 l 1
 472 36 l 1x60
 406 115 l 1
 418 342 l 1
 475 388 l 1
EndSplineSet
Validated: 1
EndChar

StartChar: ampersand
Encoding: 38 38 39
Width: 585
Flags: MW
HStem: 36 21<472 472> 355 95<172 405 172 406 158 405> 416 21<479 479> 742 20<525 525>
LayerCount: 2
Fore
SplineSet
172 450 m 1xc0
 405 450 l 1
 470 399 l 1
 406 355 l 1
 158 355 l 1
 137 374 113 389 92 406 c 1
 172 450 l 1xc0
475 388 m 1
 509 350 l 1
 490 62 l 1
 472 36 l 1
 406 115 l 1
 418 342 l 1
 475 388 l 1
525 762 m 1xb0
 527 757 530 751 530 746 c 0
 525 647 519 552 514 453 c 1
 479 416 l 1
 423 458 l 1
 435 672 l 1
 525 762 l 1xb0
EndSplineSet
Validated: 1
EndChar

StartChar: quotesingle
Encoding: 39 39 40
Width: 585
Flags: MW
HStem: 416 21G<479 479> 742 20G<525 525> 742 20G<525 525>
VStem: 423 107
LayerCount: 2
Fore
SplineSet
525 762 m 1xd0
 527 757 530 751 530 746 c 0
 525 647 519 552 514 453 c 1
 479 416 l 1
 423 458 l 1
 435 672 l 1
 525 762 l 1xd0
EndSplineSet
Validated: 1
EndChar

StartChar: parenleft
Encoding: 40 40 41
Width: 585
Flags: MW
HStem: -2 94<139 146 75 400 146 288 288 400 139 460> 59 21G<47 47> 374 20G<77 77> 416 21G<77 77> 685 95<155 423 155 168> 697 20G<82 82>
LayerCount: 2
Fore
SplineSet
139 92 m 1xb0
 400 92 l 1
 421 66 444 36 465 10 c 0
 468 7 470 5 470 3 c 0
 470 0 467 -2 460 -2 c 2
 288 -2 l 1
 146 -2 l 1
 75 -2 l 1
 68 7 61 15 54 24 c 0
 51 27 47 30 47 35 c 2
 47 36 l 1
 139 92 l 1xb0
77 394 m 1
 151 342 l 1
 139 109 l 1
 47 59 l 1x70
 63 363 l 2
 66 373 74 384 77 394 c 1
82 717 m 1x34
 168 661 l 1
 156 463 l 1
 77 416 l 1
 66 440 l 1
 82 717 l 1x34
155 780 m 1x38
 514 775 l 1
 423 685 l 1
 168 685 l 1
 88 735 l 1
 155 780 l 1x38
EndSplineSet
Validated: 1
EndChar

StartChar: parenright
Encoding: 41 41 42
Width: 585
Flags: MW
HStem: -2 94<139 146 75 400 146 288 288 400 139 460> 36 21G<47 47 472 472> 416 21G<479 479> 685 95<155 423 155 168> 742 20G<525 525> 742 20G<525 525>
LayerCount: 2
Fore
SplineSet
139 92 m 1xa0
 400 92 l 1
 421 66 444 36 465 10 c 0
 468 7 470 5 470 3 c 0
 470 0 467 -2 460 -2 c 2
 288 -2 l 1
 146 -2 l 1
 75 -2 l 1xa0
 68 7 61 15 54 24 c 0
 51 27 47 30 47 35 c 2
 47 36 l 1x60
 139 92 l 1xa0
155 780 m 1x30
 514 775 l 1
 423 685 l 1
 168 685 l 1
 88 735 l 1
 155 780 l 1x30
475 388 m 1
 509 350 l 1
 490 62 l 1
 472 36 l 1x60
 406 115 l 1
 418 342 l 1
 475 388 l 1
525 762 m 1x28
 527 757 530 751 530 746 c 0
 525 647 519 552 514 453 c 1
 479 416 l 1
 423 458 l 1
 435 672 l 1
 525 762 l 1x28
EndSplineSet
Validated: 1
EndChar

StartChar: asterisk
Encoding: 42 42 43
Width: 585
Flags: MW
HStem: -2 94<139 146 75 400 146 288 288 400 139 460> 355 95<172 405 172 406 158 405> 416 21G<479 479> 742 20G<525 525> 742 20G<525 525>
LayerCount: 2
Fore
SplineSet
139 92 m 1x80
 400 92 l 1
 421 66 444 36 465 10 c 0
 468 7 470 5 470 3 c 0
 470 0 467 -2 460 -2 c 2
 288 -2 l 1
 146 -2 l 1
 75 -2 l 1
 68 7 61 15 54 24 c 0
 51 27 47 30 47 35 c 2
 47 36 l 1
 139 92 l 1x80
172 450 m 1xc0
 405 450 l 1
 470 399 l 1
 406 355 l 1
 158 355 l 1
 137 374 113 389 92 406 c 1
 172 450 l 1xc0
525 762 m 1xb0
 527 757 530 751 530 746 c 0
 525 647 519 552 514 453 c 1
 479 416 l 1
 423 458 l 1
 435 672 l 1
 525 762 l 1xb0
EndSplineSet
Validated: 1
EndChar

StartChar: plus
Encoding: 43 43 44
Width: 577
VWidth: 2048
Flags: HMW
HStem: 36 21G<472 472> 355 95<172 405 172 406 158 405> 416 21G<479 479> 742 20G<525 525> 742 20G<525 525>
LayerCount: 2
Fore
SplineSet
461.400390625 433.799804688 m 1x80
 497.400390625 394.200195312 l 1
 450 350.399414062 l 1
 284.400390625 350.399414062 l 1
 295.799804688 433.799804688 l 1
 461.400390625 433.799804688 l 1x80
120 350.399414062 m 1
 78 396 l 1
 128.400390625 433.799804688 l 1
 286.200195312 433.799804688 l 1
 274.200195312 350.399414062 l 1
 120 350.399414062 l 1
249.600585938 439.799804688 m 1
 328.200195312 439.799804688 l 1
 376.799804688 732 l 1
 297 732 l 1
 249.600585938 439.799804688 l 1
241.799804688 343.799804688 m 1
 318.600585938 343.799804688 l 1
 272.400390625 51.599609375 l 1
 192.600585938 51.599609375 l 1
 241.799804688 343.799804688 l 1
EndSplineSet
Validated: 524297
EndChar

StartChar: comma
Encoding: 44 44 45
Width: 585
Flags: MW
HStem: -2 94<139 146 75 400 146 288 288 400 139 460> 36 21G<47 47 472 472>
LayerCount: 2
Fore
SplineSet
139 92 m 1x80
 400 92 l 1
 421 66 444 36 465 10 c 0
 468 7 470 5 470 3 c 0
 470 0 467 -2 460 -2 c 2
 288 -2 l 1
 146 -2 l 1
 75 -2 l 1x80
 68 7 61 15 54 24 c 0
 51 27 47 30 47 35 c 2
 47 36 l 1x40
 139 92 l 1x80
475 388 m 1
 509 350 l 1
 490 62 l 1
 472 36 l 1x40
 406 115 l 1
 418 342 l 1
 475 388 l 1
EndSplineSet
Validated: 1
EndChar

StartChar: hyphen
Encoding: 45 45 46
Width: 585
Flags: MW
HStem: 355 95<172 405 172 406 158 405>
LayerCount: 2
Fore
SplineSet
172 450 m 1
 405 450 l 1
 470 399 l 1
 406 355 l 1
 158 355 l 1
 137 374 113 389 92 406 c 1
 172 450 l 1
EndSplineSet
Validated: 1
EndChar

StartChar: period
Encoding: 46 46 47
Width: 585
Flags: MW
HStem: -21 100<549 573>
VStem: 513 95<15 43>
LayerCount: 2
Fore
SplineSet
563 79 m 0
 588 79 608 58 608 30 c 0
 608 0 587 -21 559 -21 c 0
 534 -21 513 0 513 28 c 0
 513 58 535 79 563 79 c 0
EndSplineSet
Validated: 1
Position2: "Single Positioning lookup 0 subtable" dx=0 dy=0 dh=-586 dv=0
EndChar

StartChar: slash
Encoding: 47 47 48
Width: 585
Flags: MW
HStem: 59 21G<47 47> 355 95<172 405 172 406 158 405> 374 20G<77 77> 416 21G<479 479> 742 20G<525 525>
LayerCount: 2
Fore
SplineSet
77 394 m 1xa8
 151 342 l 1
 139 109 l 1
 47 59 l 1
 63 363 l 2
 66 373 74 384 77 394 c 1xa8
172 450 m 1xc8
 405 450 l 1
 470 399 l 1
 406 355 l 1
 158 355 l 1
 137 374 113 389 92 406 c 1
 172 450 l 1xc8
525 762 m 1
 527 757 530 751 530 746 c 0
 525 647 519 552 514 453 c 1
 479 416 l 1x98
 423 458 l 1
 435 672 l 1
 525 762 l 1
EndSplineSet
Validated: 1
EndChar

StartChar: zero
Encoding: 48 48 49
Width: 585
Flags: MW
HStem: -2 94<139 146 75 400 146 288 288 400 139 460> 36 21G<47 47 472 472> 59 21G<47 47> 374 20G<77 77> 416 21G<77 77 479 479> 685 95<155 423 155 168> 697 20G<82 82> 742 20G<525 525>
LayerCount: 2
Fore
SplineSet
139 92 m 1x98
 400 92 l 1
 421 66 444 36 465 10 c 0
 468 7 470 5 470 3 c 0
 470 0 467 -2 460 -2 c 2
 288 -2 l 1
 146 -2 l 1
 75 -2 l 1x98
 68 7 61 15 54 24 c 0
 51 27 47 30 47 35 c 2
 47 36 l 1x58
 139 92 l 1x98
77 394 m 1
 151 342 l 1
 139 109 l 1
 47 59 l 1x38
 63 363 l 2
 66 373 74 384 77 394 c 1
82 717 m 1x1a
 168 661 l 1
 156 463 l 1
 77 416 l 1
 66 440 l 1
 82 717 l 1x1a
155 780 m 1x1c
 514 775 l 1
 423 685 l 1
 168 685 l 1
 88 735 l 1
 155 780 l 1x1c
475 388 m 1
 509 350 l 1
 490 62 l 1
 472 36 l 1x58
 406 115 l 1
 418 342 l 1
 475 388 l 1
525 762 m 1x19
 527 757 530 751 530 746 c 0
 525 647 519 552 514 453 c 1
 479 416 l 1
 423 458 l 1
 435 672 l 1
 525 762 l 1x19
EndSplineSet
Validated: 1
EndChar

StartChar: one
Encoding: 49 49 50
Width: 585
Flags: MW
HStem: 36 21G<472 472> 416 21G<479 479> 742 20G<525 525> 742 20G<525 525>
VStem: 406 124
LayerCount: 2
Fore
SplineSet
475 388 m 1xc8
 509 350 l 1
 490 62 l 1
 472 36 l 1
 406 115 l 1
 418 342 l 1
 475 388 l 1xc8
525 762 m 1xe8
 527 757 530 751 530 746 c 0
 525 647 519 552 514 453 c 1
 479 416 l 1
 423 458 l 1
 435 672 l 1
 525 762 l 1xe8
EndSplineSet
Validated: 1
EndChar

StartChar: two
Encoding: 50 50 51
Width: 585
Flags: MW
HStem: -2 94<139 146 75 400 146 288 288 400 139 460> 59 21G<47 47> 355 95<172 405 172 406 158 405> 374 20G<77 77> 416 21G<479 479> 685 95<155 423 155 168> 742 20G<525 525>
LayerCount: 2
Fore
SplineSet
139 92 m 1x80
 400 92 l 1
 421 66 444 36 465 10 c 0
 468 7 470 5 470 3 c 0
 470 0 467 -2 460 -2 c 2
 288 -2 l 1
 146 -2 l 1
 75 -2 l 1
 68 7 61 15 54 24 c 0
 51 27 47 30 47 35 c 2
 47 36 l 1
 139 92 l 1x80
77 394 m 1x50
 151 342 l 1
 139 109 l 1
 47 59 l 1
 63 363 l 2
 66 373 74 384 77 394 c 1x50
155 780 m 1x04
 514 775 l 1
 423 685 l 1
 168 685 l 1
 88 735 l 1
 155 780 l 1x04
172 450 m 1x20
 405 450 l 1
 470 399 l 1
 406 355 l 1
 158 355 l 1
 137 374 113 389 92 406 c 1
 172 450 l 1x20
525 762 m 1x0a
 527 757 530 751 530 746 c 0
 525 647 519 552 514 453 c 1
 479 416 l 1
 423 458 l 1
 435 672 l 1
 525 762 l 1x0a
EndSplineSet
Validated: 1
EndChar

StartChar: three
Encoding: 51 51 52
Width: 585
Flags: MW
HStem: -2 94<139 146 75 400 146 288 288 400 139 460> 36 21G<47 47 472 472> 355 95<172 405 172 406 158 405> 416 21G<479 479> 685 95<155 423 155 168> 742 20G<525 525> 742 20G<525 525>
LayerCount: 2
Fore
SplineSet
139 92 m 1x80
 400 92 l 1
 421 66 444 36 465 10 c 0
 468 7 470 5 470 3 c 0
 470 0 467 -2 460 -2 c 2
 288 -2 l 1
 146 -2 l 1
 75 -2 l 1x80
 68 7 61 15 54 24 c 0
 51 27 47 30 47 35 c 2
 47 36 l 1x40
 139 92 l 1x80
155 780 m 1x08
 514 775 l 1
 423 685 l 1
 168 685 l 1
 88 735 l 1
 155 780 l 1x08
172 450 m 1x20
 405 450 l 1
 470 399 l 1
 406 355 l 1
 158 355 l 1
 137 374 113 389 92 406 c 1
 172 450 l 1x20
475 388 m 1
 509 350 l 1
 490 62 l 1
 472 36 l 1x40
 406 115 l 1
 418 342 l 1
 475 388 l 1
525 762 m 1x14
 527 757 530 751 530 746 c 0
 525 647 519 552 514 453 c 1
 479 416 l 1
 423 458 l 1
 435 672 l 1
 525 762 l 1x14
EndSplineSet
Validated: 1
EndChar

StartChar: four
Encoding: 52 52 53
Width: 585
Flags: MW
HStem: 36 21G<472 472> 355 95<172 405 172 406 158 405> 416 21G<77 77 479 479> 697 20G<82 82> 697 20G<82 82> 742 20G<525 525>
LayerCount: 2
Fore
SplineSet
82 717 m 1xb4
 168 661 l 1
 156 463 l 1
 77 416 l 1
 66 440 l 1
 82 717 l 1xb4
172 450 m 1xc4
 405 450 l 1
 470 399 l 1
 406 355 l 1
 158 355 l 1
 137 374 113 389 92 406 c 1
 172 450 l 1xc4
475 388 m 1
 509 350 l 1
 490 62 l 1
 472 36 l 1
 406 115 l 1
 418 342 l 1
 475 388 l 1
525 762 m 1
 527 757 530 751 530 746 c 0
 525 647 519 552 514 453 c 1
 479 416 l 1xa4
 423 458 l 1
 435 672 l 1
 525 762 l 1
EndSplineSet
Validated: 1
EndChar

StartChar: five
Encoding: 53 53 54
Width: 585
Flags: MW
HStem: -2 94<138 147 75 400 147 288 288 400 138 460> 36 21G<472 472> 356 94<171 404 171 406 158 404> 416 21G<77 77> 685 91<169 513> 697 20G<82 82> 697 20G<82 82>
LayerCount: 2
Fore
SplineSet
476 389 m 1x40
 508 351 l 1
 489 62 l 1
 472 36 l 1
 406 114 l 1
 419 342 l 1
 476 389 l 1x40
171 450 m 1x20
 404 450 l 1
 470 399 l 1
 406 356 l 1
 158 356 l 1
 136 374 114 389 92 406 c 1
 171 450 l 1x20
155 779 m 1
 513 776 l 1
 423 685 l 1
 169 685 l 1x08
 89 736 l 1
 155 779 l 1
82 717 m 1x14
 168 662 l 1
 157 463 l 1
 77 416 l 1
 67 441 l 1
 82 717 l 1x14
138 92 m 1x80
 400 92 l 1
 421 65 445 37 466 10 c 0
 469 7 471 5 471 3 c 0
 471 0 467 -2 460 -2 c 2
 288 -2 l 1
 147 -2 l 1
 75 -2 l 1
 68 6 61 15 54 23 c 0
 51 27 46 30 46 35 c 2
 46 37 l 1
 138 92 l 1x80
EndSplineSet
Validated: 1
EndChar

StartChar: six
Encoding: 54 54 55
Width: 585
Flags: MW
HStem: -2 94<138 147 75 400 147 288 288 400 138 460> 36 21G<472 472> 58 21G<47 47> 356 94<171 404 171 406 158 404> 393 21G<76 76> 416 21G<77 77> 685 91<169 513> 697 20G<82 82>
LayerCount: 2
Fore
SplineSet
138 92 m 1x80
 400 92 l 1
 421 65 445 37 466 10 c 0
 469 7 471 5 471 3 c 0
 471 0 467 -2 460 -2 c 2
 288 -2 l 1
 147 -2 l 1
 75 -2 l 1
 68 6 61 15 54 23 c 0
 51 27 46 30 46 35 c 2
 46 37 l 1
 138 92 l 1x80
82 717 m 1x05
 168 662 l 1
 157 463 l 1
 77 416 l 1
 67 441 l 1
 82 717 l 1x05
155 779 m 1
 513 776 l 1
 423 685 l 1
 169 685 l 1x02
 89 736 l 1
 155 779 l 1
171 450 m 1x10
 404 450 l 1
 470 399 l 1
 406 356 l 1
 158 356 l 1
 136 374 114 389 92 406 c 1
 171 450 l 1x10
476 389 m 1
 508 351 l 1
 489 62 l 1
 472 36 l 1x40
 406 114 l 1
 419 342 l 1
 476 389 l 1
76 393 m 1x28
 151 342 l 1
 139 109 l 1
 47 58 l 1
 63 363 l 2
 67 373 72 383 76 393 c 1x28
EndSplineSet
Validated: 1
EndChar

StartChar: seven
Encoding: 55 55 56
Width: 585
Flags: MW
HStem: 36 21G<472 472> 416 21G<479 479> 685 95<155 423 155 168> 742 20G<525 525> 742 20G<525 525>
LayerCount: 2
Fore
SplineSet
155 780 m 1xe0
 514 775 l 1
 423 685 l 1
 168 685 l 1
 88 735 l 1
 155 780 l 1xe0
475 388 m 1
 509 350 l 1
 490 62 l 1
 472 36 l 1
 406 115 l 1
 418 342 l 1
 475 388 l 1
525 762 m 1xd0
 527 757 530 751 530 746 c 0
 525 647 519 552 514 453 c 1
 479 416 l 1
 423 458 l 1
 435 672 l 1
 525 762 l 1xd0
EndSplineSet
Validated: 1
EndChar

StartChar: eight
Encoding: 56 56 57
Width: 585
Flags: MW
HStem: -2 94<139 146 75 400 146 288 288 400 139 460> 36 21G<47 47 472 472> 59 21G<47 47> 355 95<172 405 172 406 158 405> 374 20G<77 77> 416 21G<77 77 479 479> 685 95<155 423 155 168> 697 20G<82 82> 742 20G<525 525>
LayerCount: 2
Fore
SplineSet
139 92 m 1x80
 400 92 l 1
 421 66 444 36 465 10 c 0
 468 7 470 5 470 3 c 0
 470 0 467 -2 460 -2 c 2
 288 -2 l 1
 146 -2 l 1
 75 -2 l 1x80
 68 7 61 15 54 24 c 0
 51 27 47 30 47 35 c 2
 47 36 l 1x40
 139 92 l 1x80
77 394 m 1x28
 151 342 l 1
 139 109 l 1
 47 59 l 1
 63 363 l 2
 66 373 74 384 77 394 c 1x28
82 717 m 1x05
 168 661 l 1
 156 463 l 1
 77 416 l 1
 66 440 l 1
 82 717 l 1x05
155 780 m 1x02
 514 775 l 1
 423 685 l 1
 168 685 l 1
 88 735 l 1
 155 780 l 1x02
172 450 m 1x10
 405 450 l 1
 470 399 l 1
 406 355 l 1
 158 355 l 1
 137 374 113 389 92 406 c 1
 172 450 l 1x10
475 388 m 1
 509 350 l 1
 490 62 l 1
 472 36 l 1x40
 406 115 l 1
 418 342 l 1
 475 388 l 1
525 762 m 1x0480
 527 757 530 751 530 746 c 0
 525 647 519 552 514 453 c 1
 479 416 l 1
 423 458 l 1
 435 672 l 1
 525 762 l 1x0480
EndSplineSet
Validated: 1
EndChar

StartChar: nine
Encoding: 57 57 58
Width: 585
Flags: MW
HStem: -2 94<139 146 75 400 146 288 288 400 139 460> 36 21G<47 47 472 472> 355 95<172 405 172 406 158 405> 416 21G<77 77 479 479> 685 95<155 423 155 168> 697 20G<82 82> 697 20G<82 82> 742 20G<525 525>
LayerCount: 2
Fore
SplineSet
139 92 m 1x80
 400 92 l 1
 421 66 444 36 465 10 c 0
 468 7 470 5 470 3 c 0
 470 0 467 -2 460 -2 c 2
 288 -2 l 1
 146 -2 l 1
 75 -2 l 1x80
 68 7 61 15 54 24 c 0
 51 27 47 30 47 35 c 2
 47 36 l 1x40
 139 92 l 1x80
82 717 m 1x14
 168 661 l 1
 156 463 l 1
 77 416 l 1
 66 440 l 1
 82 717 l 1x14
155 780 m 1x08
 514 775 l 1
 423 685 l 1
 168 685 l 1
 88 735 l 1
 155 780 l 1x08
172 450 m 1x20
 405 450 l 1
 470 399 l 1
 406 355 l 1
 158 355 l 1
 137 374 113 389 92 406 c 1
 172 450 l 1x20
475 388 m 1
 509 350 l 1
 490 62 l 1
 472 36 l 1x40
 406 115 l 1
 418 342 l 1
 475 388 l 1
525 762 m 1x11
 527 757 530 751 530 746 c 0
 525 647 519 552 514 453 c 1
 479 416 l 1
 423 458 l 1
 435 672 l 1
 525 762 l 1x11
EndSplineSet
Validated: 1
EndChar

StartChar: colon
Encoding: 58 58 59
Width: 383
VWidth: 2048
Flags: HMWO
LayerCount: 2
Fore
SplineSet
131.399414062 148.399414062 m 6
 180.599609375 198.799804688 l 6
 186.599609375 204.399414062 192.399414062 207.19921875 198 207.19921875 c 4
 203.200195312 207.19921875 209.399414062 204 216.599609375 197.599609375 c 6
 264.599609375 146 l 6
 269.399414062 139.599609375 271.799804688 133.799804688 271.799804688 128.599609375 c 4
 271.799804688 122.599609375 269 116.399414062 263.399414062 110 c 6
 215.399414062 57.19921875 l 6
 207.399414062 49.19921875 201.599609375 45.19921875 198 45.19921875 c 4
 191.599609375 45.19921875 185.799804688 48 180.599609375 53.599609375 c 6
 127.799804688 114.19921875 l 6
 123.799804688 119.399414062 121.799804688 124.599609375 121.799804688 129.799804688 c 4
 121.799804688 135.799804688 125 142 131.399414062 148.399414062 c 6
131.399414062 564.19921875 m 6
 180.599609375 614.599609375 l 6
 186.599609375 620.19921875 192.399414062 623 198 623 c 4
 203.200195312 623 209.399414062 619.799804688 216.599609375 613.399414062 c 6
 264.599609375 561.799804688 l 6
 269.399414062 555.399414062 271.799804688 549.599609375 271.799804688 544.399414062 c 4
 271.799804688 538.399414062 269 532.19921875 263.399414062 525.799804688 c 6
 215.399414062 473 l 6
 207.399414062 465 201.599609375 461 198 461 c 4
 191.599609375 461 185.799804688 463.799804688 180.599609375 469.399414062 c 6
 127.799804688 530 l 6
 123.799804688 535.19921875 121.799804688 540.399414062 121.799804688 545.599609375 c 4
 121.799804688 551.599609375 125 557.799804688 131.399414062 564.19921875 c 6
EndSplineSet
Validated: 524289
EndChar

StartChar: semicolon
Encoding: 59 59 60
Width: 585
Flags: MW
HStem: -21 100<549 573> 416 21<479 479> 742 20<525 525>
VStem: 423 107 513 95<15 43>
LayerCount: 2
Fore
SplineSet
525 762 m 1x70
 527 757 530 751 530 746 c 0
 525 647 519 552 514 453 c 1
 479 416 l 1
 423 458 l 1
 435 672 l 1
 525 762 l 1x70
563 79 m 0x88
 588 79 608 58 608 30 c 0
 608 0 587 -21 559 -21 c 0
 534 -21 513 0 513 28 c 0
 513 58 535 79 563 79 c 0x88
EndSplineSet
Validated: 1
EndChar

StartChar: less
Encoding: 60 60 61
Width: 585
Flags: W
LayerCount: 2
Fore
SplineSet
139 92 m 1
 400 92 l 1
 421 66 444 36 465 10 c 0
 468 7 470 5 470 3 c 0
 470 0 467 -2 460 -2 c 2
 288 -2 l 1
 146 -2 l 1
 75 -2 l 1
 68 7 61 15 54 24 c 0
 51 27 47 30 47 35 c 2
 47 36 l 1
 139 92 l 1
77 394 m 1
 151 342 l 1
 139 109 l 1
 47 59 l 1
 63 363 l 2
 66 373 74 384 77 394 c 1
172 450 m 1
 405 450 l 1
 470 399 l 1
 406 355 l 1
 158 355 l 1
 137 374 113 389 92 406 c 1
 172 450 l 1
EndSplineSet
Validated: 1
EndChar

StartChar: equal
Encoding: 61 61 62
Width: 585
Flags: MW
HStem: -2 94<139 146 75 400 146 288 288 400 139 460> 355 95<172 405 172 406 158 405>
LayerCount: 2
Fore
SplineSet
139 92 m 1
 400 92 l 1
 421 66 444 36 465 10 c 0
 468 7 470 5 470 3 c 0
 470 0 467 -2 460 -2 c 2
 288 -2 l 1
 146 -2 l 1
 75 -2 l 1
 68 7 61 15 54 24 c 0
 51 27 47 30 47 35 c 2
 47 36 l 1
 139 92 l 1
172 450 m 1
 405 450 l 1
 470 399 l 1
 406 355 l 1
 158 355 l 1
 137 374 113 389 92 406 c 1
 172 450 l 1
EndSplineSet
Validated: 1
EndChar

StartChar: greater
Encoding: 62 62 63
Width: 585
Flags: MW
HStem: -2 94<139 146 75 400 146 288 288 400 139 460> 36 21<47 47 472 472>
LayerCount: 2
Fore
SplineSet
139 92 m 1x80
 400 92 l 1
 421 66 444 36 465 10 c 0
 468 7 470 5 470 3 c 0
 470 0 467 -2 460 -2 c 2
 288 -2 l 1
 146 -2 l 1
 75 -2 l 1x80
 68 7 61 15 54 24 c 0
 51 27 47 30 47 35 c 2
 47 36 l 1x40
 139 92 l 1x80
475 388 m 1
 509 350 l 1
 490 62 l 1
 472 36 l 1x40
 406 115 l 1
 418 342 l 1
 475 388 l 1
EndSplineSet
Validated: 1
EndChar

StartChar: question
Encoding: 63 63 64
Width: 585
Flags: MW
HStem: 59 21G<47 47> 355 95<172 405 172 406 158 405> 374 20G<77 77> 416 21G<479 479> 685 95<155 423 155 168> 742 20G<525 525>
LayerCount: 2
Fore
SplineSet
77 394 m 1xa0
 151 342 l 1
 139 109 l 1
 47 59 l 1
 63 363 l 2
 66 373 74 384 77 394 c 1xa0
155 780 m 1x88
 514 775 l 1
 423 685 l 1
 168 685 l 1
 88 735 l 1
 155 780 l 1x88
172 450 m 1xc0
 405 450 l 1
 470 399 l 1
 406 355 l 1
 158 355 l 1
 137 374 113 389 92 406 c 1
 172 450 l 1xc0
525 762 m 1x94
 527 757 530 751 530 746 c 0
 525 647 519 552 514 453 c 1
 479 416 l 1
 423 458 l 1
 435 672 l 1
 525 762 l 1x94
EndSplineSet
Validated: 1
EndChar

StartChar: at
Encoding: 64 64 65
Width: 585
Flags: MW
HStem: -2 94<139 146 75 400 146 288 288 400 139 460> 36 21<47 47 472 472> 59 21<47 47> 355 95<172 405 172 406 158 405> 374 20<77 77> 416 21<479 479> 685 95<155 423 155 168> 742 20<525 525>
LayerCount: 2
Fore
SplineSet
139 92 m 1x80
 400 92 l 1
 421 66 444 36 465 10 c 0
 468 7 470 5 470 3 c 0
 470 0 467 -2 460 -2 c 2
 288 -2 l 1
 146 -2 l 1
 75 -2 l 1x80
 68 7 61 15 54 24 c 0
 51 27 47 30 47 35 c 2
 47 36 l 1x40
 139 92 l 1x80
77 394 m 1x28
 151 342 l 1
 139 109 l 1
 47 59 l 1
 63 363 l 2
 66 373 74 384 77 394 c 1x28
155 780 m 1x02
 514 775 l 1
 423 685 l 1
 168 685 l 1
 88 735 l 1
 155 780 l 1x02
172 450 m 1x10
 405 450 l 1
 470 399 l 1
 406 355 l 1
 158 355 l 1
 137 374 113 389 92 406 c 1
 172 450 l 1x10
475 388 m 1
 509 350 l 1
 490 62 l 1
 472 36 l 1x40
 406 115 l 1
 418 342 l 1
 475 388 l 1
525 762 m 1x05
 527 757 530 751 530 746 c 0
 525 647 519 552 514 453 c 1
 479 416 l 1
 423 458 l 1
 435 672 l 1
 525 762 l 1x05
EndSplineSet
Validated: 1
EndChar

StartChar: A
Encoding: 65 65 66
Width: 585
Flags: MW
HStem: 36 21G<472 472> 59 21G<47 47> 355 95<172 405 172 406 158 405> 374 20G<77 77> 416 21G<77 77 479 479> 685 95<155 423 155 168> 697 20G<82 82> 742 20G<525 525>
LayerCount: 2
Fore
SplineSet
77 394 m 1xd0
 151 342 l 1
 139 109 l 1
 47 59 l 1
 63 363 l 2
 66 373 74 384 77 394 c 1xd0
82 717 m 1xca
 168 661 l 1
 156 463 l 1
 77 416 l 1
 66 440 l 1
 82 717 l 1xca
155 780 m 1xc4
 514 775 l 1
 423 685 l 1
 168 685 l 1
 88 735 l 1
 155 780 l 1xc4
172 450 m 1xe0
 405 450 l 1
 470 399 l 1
 406 355 l 1
 158 355 l 1
 137 374 113 389 92 406 c 1
 172 450 l 1xe0
475 388 m 1
 509 350 l 1
 490 62 l 1
 472 36 l 1
 406 115 l 1
 418 342 l 1
 475 388 l 1
525 762 m 1xc9
 527 757 530 751 530 746 c 0
 525 647 519 552 514 453 c 1
 479 416 l 1
 423 458 l 1
 435 672 l 1
 525 762 l 1xc9
EndSplineSet
Validated: 1
EndChar

StartChar: B
Encoding: 66 66 67
Width: 585
Flags: MW
HStem: -2 94<139 146 75 400 146 288 288 400 139 460> 36 21<47 47 472 472> 59 21<47 47> 355 95<172 405 172 406 158 405> 374 20<77 77> 416 21<77 77> 697 20<82 82>
LayerCount: 2
Fore
SplineSet
139 92 m 1x82
 400 92 l 1
 421 66 444 36 465 10 c 0
 468 7 470 5 470 3 c 0
 470 0 467 -2 460 -2 c 2
 288 -2 l 1
 146 -2 l 1
 75 -2 l 1x82
 68 7 61 15 54 24 c 0
 51 27 47 30 47 35 c 2
 47 36 l 1x42
 139 92 l 1x82
77 394 m 1x2a
 151 342 l 1
 139 109 l 1
 47 59 l 1
 63 363 l 2
 66 373 74 384 77 394 c 1x2a
82 717 m 1
 168 661 l 1
 156 463 l 1
 77 416 l 1x06
 66 440 l 1
 82 717 l 1
172 450 m 1x12
 405 450 l 1
 470 399 l 1
 406 355 l 1
 158 355 l 1
 137 374 113 389 92 406 c 1
 172 450 l 1x12
475 388 m 1
 509 350 l 1
 490 62 l 1
 472 36 l 1x42
 406 115 l 1
 418 342 l 1
 475 388 l 1
EndSplineSet
Validated: 1
EndChar

StartChar: C
Encoding: 67 67 68
Width: 585
Flags: MW
HStem: -2 94<139 146 75 400 146 288 288 400 139 460> 59 21<47 47> 374 20<77 77> 416 21<77 77> 685 95<155 423 155 168> 697 20<82 82>
LayerCount: 2
Fore
SplineSet
139 92 m 1xb0
 400 92 l 1
 421 66 444 36 465 10 c 0
 468 7 470 5 470 3 c 0
 470 0 467 -2 460 -2 c 2
 288 -2 l 1
 146 -2 l 1
 75 -2 l 1
 68 7 61 15 54 24 c 0
 51 27 47 30 47 35 c 2
 47 36 l 1
 139 92 l 1xb0
77 394 m 1
 151 342 l 1
 139 109 l 1
 47 59 l 1x70
 63 363 l 2
 66 373 74 384 77 394 c 1
82 717 m 1x34
 168 661 l 1
 156 463 l 1
 77 416 l 1
 66 440 l 1
 82 717 l 1x34
155 780 m 1x38
 514 775 l 1
 423 685 l 1
 168 685 l 1
 88 735 l 1
 155 780 l 1x38
EndSplineSet
Validated: 1
EndChar

StartChar: D
Encoding: 68 68 69
Width: 585
Flags: MW
HStem: -2 94<139 146 75 400 146 288 288 400 139 460> 36 21<47 47 472 472> 59 21<47 47> 355 95<172 405 172 406 158 405> 374 20<77 77> 416 21<479 479> 742 20<525 525>
LayerCount: 2
Fore
SplineSet
139 92 m 1x82
 400 92 l 1
 421 66 444 36 465 10 c 0
 468 7 470 5 470 3 c 0
 470 0 467 -2 460 -2 c 2
 288 -2 l 1
 146 -2 l 1
 75 -2 l 1x82
 68 7 61 15 54 24 c 0
 51 27 47 30 47 35 c 2
 47 36 l 1x42
 139 92 l 1x82
77 394 m 1x2a
 151 342 l 1
 139 109 l 1
 47 59 l 1
 63 363 l 2
 66 373 74 384 77 394 c 1x2a
172 450 m 1x12
 405 450 l 1
 470 399 l 1
 406 355 l 1
 158 355 l 1
 137 374 113 389 92 406 c 1
 172 450 l 1x12
475 388 m 1
 509 350 l 1
 490 62 l 1
 472 36 l 1x42
 406 115 l 1
 418 342 l 1
 475 388 l 1
525 762 m 1
 527 757 530 751 530 746 c 0
 525 647 519 552 514 453 c 1
 479 416 l 1x06
 423 458 l 1
 435 672 l 1
 525 762 l 1
EndSplineSet
Validated: 1
EndChar

StartChar: E
Encoding: 69 69 70
Width: 585
Flags: MW
HStem: -2 94<139 146 75 400 146 288 288 400 139 460> 59 21G<47 47> 355 95<172 405 172 406 158 405> 374 20G<77 77> 416 21G<77 77> 685 95<155 423 155 168> 697 20G<82 82>
LayerCount: 2
Fore
SplineSet
139 92 m 1x80
 400 92 l 1
 421 66 444 36 465 10 c 0
 468 7 470 5 470 3 c 0
 470 0 467 -2 460 -2 c 2
 288 -2 l 1
 146 -2 l 1
 75 -2 l 1
 68 7 61 15 54 24 c 0
 51 27 47 30 47 35 c 2
 47 36 l 1
 139 92 l 1x80
77 394 m 1x50
 151 342 l 1
 139 109 l 1
 47 59 l 1
 63 363 l 2
 66 373 74 384 77 394 c 1x50
82 717 m 1x0a
 168 661 l 1
 156 463 l 1
 77 416 l 1
 66 440 l 1
 82 717 l 1x0a
155 780 m 1x04
 514 775 l 1
 423 685 l 1
 168 685 l 1
 88 735 l 1
 155 780 l 1x04
172 450 m 1x20
 405 450 l 1
 470 399 l 1
 406 355 l 1
 158 355 l 1
 137 374 113 389 92 406 c 1
 172 450 l 1x20
EndSplineSet
Validated: 1
EndChar

StartChar: F
Encoding: 70 70 71
Width: 585
Flags: MW
HStem: 59 21<47 47> 355 95<172 405 172 406 158 405> 374 20<77 77> 416 21<77 77> 685 95<155 423 155 168> 697 20<82 82>
LayerCount: 2
Fore
SplineSet
77 394 m 1xa0
 151 342 l 1
 139 109 l 1
 47 59 l 1
 63 363 l 2
 66 373 74 384 77 394 c 1xa0
82 717 m 1x94
 168 661 l 1
 156 463 l 1
 77 416 l 1
 66 440 l 1
 82 717 l 1x94
155 780 m 1x88
 514 775 l 1
 423 685 l 1
 168 685 l 1
 88 735 l 1
 155 780 l 1x88
172 450 m 1xc0
 405 450 l 1
 470 399 l 1
 406 355 l 1
 158 355 l 1
 137 374 113 389 92 406 c 1
 172 450 l 1xc0
EndSplineSet
Validated: 1
Substitution2: "Single Substitution lookup 0 subtable" f
EndChar

StartChar: G
Encoding: 71 71 72
Width: 585
Flags: MW
HStem: -2 94<139 146 75 400 146 288 288 400 139 460> 36 21G<47 47 472 472> 59 21G<47 47> 374 20G<77 77> 416 21G<77 77> 685 95<155 423 155 168> 697 20G<82 82>
LayerCount: 2
Fore
SplineSet
139 92 m 1x98
 400 92 l 1
 421 66 444 36 465 10 c 0
 468 7 470 5 470 3 c 0
 470 0 467 -2 460 -2 c 2
 288 -2 l 1
 146 -2 l 1
 75 -2 l 1x98
 68 7 61 15 54 24 c 0
 51 27 47 30 47 35 c 2
 47 36 l 1x58
 139 92 l 1x98
77 394 m 1
 151 342 l 1
 139 109 l 1
 47 59 l 1x38
 63 363 l 2
 66 373 74 384 77 394 c 1
82 717 m 1x1a
 168 661 l 1
 156 463 l 1
 77 416 l 1
 66 440 l 1
 82 717 l 1x1a
155 780 m 1x1c
 514 775 l 1
 423 685 l 1
 168 685 l 1
 88 735 l 1
 155 780 l 1x1c
475 388 m 1
 509 350 l 1
 490 62 l 1
 472 36 l 1x58
 406 115 l 1
 418 342 l 1
 475 388 l 1
EndSplineSet
Validated: 1
EndChar

StartChar: H
Encoding: 72 72 73
Width: 585
Flags: MW
HStem: 36 21<472 472> 59 21<47 47> 355 95<172 405 172 406 158 405> 374 20<77 77> 416 21<77 77 479 479> 697 20<82 82> 742 20<525 525>
LayerCount: 2
Fore
SplineSet
77 394 m 1xd6
 151 342 l 1
 139 109 l 1
 47 59 l 1
 63 363 l 2
 66 373 74 384 77 394 c 1xd6
82 717 m 1
 168 661 l 1
 156 463 l 1
 77 416 l 1xce
 66 440 l 1
 82 717 l 1
172 450 m 1xe6
 405 450 l 1
 470 399 l 1
 406 355 l 1
 158 355 l 1
 137 374 113 389 92 406 c 1
 172 450 l 1xe6
475 388 m 1
 509 350 l 1
 490 62 l 1
 472 36 l 1
 406 115 l 1
 418 342 l 1
 475 388 l 1
525 762 m 1
 527 757 530 751 530 746 c 0
 525 647 519 552 514 453 c 1
 479 416 l 1xce
 423 458 l 1
 435 672 l 1
 525 762 l 1
EndSplineSet
Validated: 1
EndChar

StartChar: I
Encoding: 73 73 74
Width: 585
Flags: MW
HStem: 36 21<472 472> 416 21<479 479> 742 20<525 525>
VStem: 406 124
LayerCount: 2
Fore
SplineSet
475 388 m 1
 509 350 l 1
 490 62 l 1
 472 36 l 1
 406 115 l 1
 418 342 l 1
 475 388 l 1
525 762 m 1
 527 757 530 751 530 746 c 0
 525 647 519 552 514 453 c 1
 479 416 l 1
 423 458 l 1
 435 672 l 1
 525 762 l 1
EndSplineSet
Validated: 1
EndChar

StartChar: J
Encoding: 74 74 75
Width: 585
Flags: MW
HStem: -2 94<139 146 75 400 146 288 288 400 139 460> 36 21<47 47 472 472> 59 21<47 47> 374 20<77 77> 416 21<479 479> 742 20<525 525>
LayerCount: 2
Fore
SplineSet
139 92 m 1x9c
 400 92 l 1
 421 66 444 36 465 10 c 0
 468 7 470 5 470 3 c 0
 470 0 467 -2 460 -2 c 2
 288 -2 l 1
 146 -2 l 1
 75 -2 l 1x9c
 68 7 61 15 54 24 c 0
 51 27 47 30 47 35 c 2
 47 36 l 1x5c
 139 92 l 1x9c
77 394 m 1
 151 342 l 1
 139 109 l 1
 47 59 l 1x3c
 63 363 l 2
 66 373 74 384 77 394 c 1
475 388 m 1
 509 350 l 1
 490 62 l 1
 472 36 l 1x5c
 406 115 l 1
 418 342 l 1
 475 388 l 1
525 762 m 1
 527 757 530 751 530 746 c 0
 525 647 519 552 514 453 c 1
 479 416 l 1
 423 458 l 1
 435 672 l 1
 525 762 l 1
EndSplineSet
Validated: 1
Substitution2: "Single Substitution lookup 0 subtable" j
EndChar

StartChar: K
Encoding: 75 75 76
Width: 585
Flags: MW
HStem: 36 21<472 472> 59 21<47 47> 355 95<172 405 172 406 158 405> 374 20<77 77> 416 21<77 77> 685 95<155 423 155 168> 697 20<82 82>
LayerCount: 2
Fore
SplineSet
77 394 m 1xd0
 151 342 l 1
 139 109 l 1
 47 59 l 1
 63 363 l 2
 66 373 74 384 77 394 c 1xd0
82 717 m 1xca
 168 661 l 1
 156 463 l 1
 77 416 l 1
 66 440 l 1
 82 717 l 1xca
155 780 m 1xc4
 514 775 l 1
 423 685 l 1
 168 685 l 1
 88 735 l 1
 155 780 l 1xc4
172 450 m 1xe0
 405 450 l 1
 470 399 l 1
 406 355 l 1
 158 355 l 1
 137 374 113 389 92 406 c 1
 172 450 l 1xe0
475 388 m 1
 509 350 l 1
 490 62 l 1
 472 36 l 1
 406 115 l 1
 418 342 l 1
 475 388 l 1
EndSplineSet
Validated: 1
EndChar

StartChar: L
Encoding: 76 76 77
Width: 585
Flags: MW
HStem: -2 94<139 146 75 400 146 288 288 400 139 460> 59 21<47 47> 374 20<77 77> 416 21<77 77> 697 20<82 82>
LayerCount: 2
Fore
SplineSet
139 92 m 1xb8
 400 92 l 1
 421 66 444 36 465 10 c 0
 468 7 470 5 470 3 c 0
 470 0 467 -2 460 -2 c 2
 288 -2 l 1
 146 -2 l 1
 75 -2 l 1
 68 7 61 15 54 24 c 0
 51 27 47 30 47 35 c 2
 47 36 l 1
 139 92 l 1xb8
77 394 m 1
 151 342 l 1
 139 109 l 1
 47 59 l 1x78
 63 363 l 2
 66 373 74 384 77 394 c 1
82 717 m 1
 168 661 l 1
 156 463 l 1
 77 416 l 1
 66 440 l 1
 82 717 l 1
EndSplineSet
Validated: 1
EndChar

StartChar: M
Encoding: 77 77 78
Width: 585
Flags: W
LayerCount: 2
Fore
SplineSet
77 394 m 1
 151 342 l 1
 139 109 l 1
 47 59 l 1
 63 363 l 2
 66 373 74 384 77 394 c 1
172 450 m 1
 405 450 l 1
 470 399 l 1
 406 355 l 1
 158 355 l 1
 137 374 113 389 92 406 c 1
 172 450 l 1
475 388 m 1
 509 350 l 1
 490 62 l 1
 472 36 l 1
 406 115 l 1
 418 342 l 1
 475 388 l 1
525 762 m 1
 527 757 530 751 530 746 c 0
 525 647 519 552 514 453 c 1
 479 416 l 1
 423 458 l 1
 435 672 l 1
 525 762 l 1
EndSplineSet
Validated: 1
EndChar

StartChar: N
Encoding: 78 78 79
Width: 585
Flags: MW
HStem: 36 21G<472 472> 59 21G<47 47> 374 20G<77 77> 416 21G<77 77 479 479> 685 95<155 423 155 168> 697 20G<82 82> 742 20G<525 525>
LayerCount: 2
Fore
SplineSet
77 394 m 1xf0
 151 342 l 1
 139 109 l 1
 47 59 l 1
 63 363 l 2
 66 373 74 384 77 394 c 1xf0
82 717 m 1xf4
 168 661 l 1
 156 463 l 1
 77 416 l 1
 66 440 l 1
 82 717 l 1xf4
155 780 m 1xf8
 514 775 l 1
 423 685 l 1
 168 685 l 1
 88 735 l 1
 155 780 l 1xf8
475 388 m 1
 509 350 l 1
 490 62 l 1
 472 36 l 1
 406 115 l 1
 418 342 l 1
 475 388 l 1
525 762 m 1xf2
 527 757 530 751 530 746 c 0
 525 647 519 552 514 453 c 1
 479 416 l 1
 423 458 l 1
 435 672 l 1
 525 762 l 1xf2
EndSplineSet
Validated: 1
EndChar

StartChar: O
Encoding: 79 79 80
Width: 585
Flags: MW
HStem: -2 94<139 146 75 400 146 288 288 400 139 460> 36 21<47 47 472 472> 59 21<47 47> 374 20<77 77> 416 21<77 77 479 479> 685 95<155 423 155 168> 697 20<82 82> 742 20<525 525>
LayerCount: 2
Fore
SplineSet
139 92 m 1x98
 400 92 l 1
 421 66 444 36 465 10 c 0
 468 7 470 5 470 3 c 0
 470 0 467 -2 460 -2 c 2
 288 -2 l 1
 146 -2 l 1
 75 -2 l 1x98
 68 7 61 15 54 24 c 0
 51 27 47 30 47 35 c 2
 47 36 l 1x58
 139 92 l 1x98
77 394 m 1
 151 342 l 1
 139 109 l 1
 47 59 l 1x38
 63 363 l 2
 66 373 74 384 77 394 c 1
82 717 m 1x1a
 168 661 l 1
 156 463 l 1
 77 416 l 1
 66 440 l 1
 82 717 l 1x1a
155 780 m 1x1c
 514 775 l 1
 423 685 l 1
 168 685 l 1
 88 735 l 1
 155 780 l 1x1c
475 388 m 1
 509 350 l 1
 490 62 l 1
 472 36 l 1x58
 406 115 l 1
 418 342 l 1
 475 388 l 1
525 762 m 1x19
 527 757 530 751 530 746 c 0
 525 647 519 552 514 453 c 1
 479 416 l 1
 423 458 l 1
 435 672 l 1
 525 762 l 1x19
EndSplineSet
Validated: 1
EndChar

StartChar: P
Encoding: 80 80 81
Width: 585
Flags: MW
HStem: 59 21<47 47> 355 95<172 405 172 406 158 405> 374 20<77 77> 416 21<77 77 479 479> 685 95<155 423 155 168> 697 20<82 82> 742 20<525 525>
LayerCount: 2
Fore
SplineSet
77 394 m 1xa0
 151 342 l 1
 139 109 l 1
 47 59 l 1
 63 363 l 2
 66 373 74 384 77 394 c 1xa0
82 717 m 1x94
 168 661 l 1
 156 463 l 1
 77 416 l 1
 66 440 l 1
 82 717 l 1x94
155 780 m 1x88
 514 775 l 1
 423 685 l 1
 168 685 l 1
 88 735 l 1
 155 780 l 1x88
172 450 m 1xc0
 405 450 l 1
 470 399 l 1
 406 355 l 1
 158 355 l 1
 137 374 113 389 92 406 c 1
 172 450 l 1xc0
525 762 m 1x92
 527 757 530 751 530 746 c 0
 525 647 519 552 514 453 c 1
 479 416 l 1
 423 458 l 1
 435 672 l 1
 525 762 l 1x92
EndSplineSet
Validated: 1
EndChar

StartChar: Q
Encoding: 81 81 82
Width: 585
Flags: MW
HStem: 36 21<472 472> 355 95<172 405 172 406 158 405> 416 21<77 77 479 479> 685 95<155 423 155 168> 697 20<82 82> 742 20<525 525>
LayerCount: 2
Fore
SplineSet
82 717 m 1xa8
 168 661 l 1
 156 463 l 1
 77 416 l 1
 66 440 l 1
 82 717 l 1xa8
155 780 m 1x90
 514 775 l 1
 423 685 l 1
 168 685 l 1
 88 735 l 1
 155 780 l 1x90
172 450 m 1xc0
 405 450 l 1
 470 399 l 1
 406 355 l 1
 158 355 l 1
 137 374 113 389 92 406 c 1
 172 450 l 1xc0
475 388 m 1
 509 350 l 1
 490 62 l 1
 472 36 l 1
 406 115 l 1
 418 342 l 1
 475 388 l 1
525 762 m 1xa4
 527 757 530 751 530 746 c 0
 525 647 519 552 514 453 c 1
 479 416 l 1
 423 458 l 1
 435 672 l 1
 525 762 l 1xa4
EndSplineSet
Validated: 1
EndChar

StartChar: R
Encoding: 82 82 83
Width: 585
Flags: MW
HStem: 59 21<47 47> 355 95<172 405 172 406 158 405> 374 20<77 77>
LayerCount: 2
Fore
SplineSet
77 394 m 1xa0
 151 342 l 1
 139 109 l 1
 47 59 l 1
 63 363 l 2
 66 373 74 384 77 394 c 1xa0
172 450 m 1xc0
 405 450 l 1
 470 399 l 1
 406 355 l 1
 158 355 l 1
 137 374 113 389 92 406 c 1
 172 450 l 1xc0
EndSplineSet
Validated: 1
EndChar

StartChar: S
Encoding: 83 83 84
Width: 585
Flags: MW
HStem: -2 94<138 147 75 400 147 288 288 400 138 460> 36 21<472 472> 356 94<171 404 171 406 158 404> 416 21<77 77> 685 91<169 513> 697 20<82 82>
LayerCount: 2
Fore
SplineSet
138 92 m 1x80
 400 92 l 1
 421 65 445 37 466 10 c 0
 469 7 471 5 471 3 c 0
 471 0 467 -2 460 -2 c 2
 288 -2 l 1
 147 -2 l 1
 75 -2 l 1
 68 6 61 15 54 23 c 0
 51 27 46 30 46 35 c 2
 46 37 l 1
 138 92 l 1x80
82 717 m 1x14
 168 662 l 1
 157 463 l 1
 77 416 l 1
 67 441 l 1
 82 717 l 1x14
155 779 m 1
 513 776 l 1
 423 685 l 1
 169 685 l 1x08
 89 736 l 1
 155 779 l 1
171 450 m 1x20
 404 450 l 1
 470 399 l 1
 406 356 l 1
 158 356 l 1
 136 374 114 389 92 406 c 1
 171 450 l 1x20
476 389 m 1
 508 351 l 1
 489 62 l 1
 472 36 l 1x40
 406 114 l 1
 419 342 l 1
 476 389 l 1
EndSplineSet
Validated: 1
EndChar

StartChar: T
Encoding: 84 84 85
Width: 585
Flags: MW
HStem: -2 94<139 146 75 400 146 288 288 400 139 460> 59 21<47 47> 355 95<172 405 172 406 158 405> 374 20<77 77> 416 21<77 77> 697 20<82 82>
LayerCount: 2
Fore
SplineSet
139 92 m 1x84
 400 92 l 1
 421 66 444 36 465 10 c 0
 468 7 470 5 470 3 c 0
 470 0 467 -2 460 -2 c 2
 288 -2 l 1
 146 -2 l 1
 75 -2 l 1
 68 7 61 15 54 24 c 0
 51 27 47 30 47 35 c 2
 47 36 l 1
 139 92 l 1x84
77 394 m 1x54
 151 342 l 1
 139 109 l 1
 47 59 l 1
 63 363 l 2
 66 373 74 384 77 394 c 1x54
82 717 m 1
 168 661 l 1
 156 463 l 1
 77 416 l 1x0c
 66 440 l 1
 82 717 l 1
172 450 m 1x24
 405 450 l 1
 470 399 l 1
 406 355 l 1
 158 355 l 1
 137 374 113 389 92 406 c 1
 172 450 l 1x24
EndSplineSet
Validated: 1
EndChar

StartChar: U
Encoding: 85 85 86
Width: 585
Flags: MW
HStem: -2 94<139 146 75 400 146 288 288 400 139 460> 36 21<47 47 472 472> 59 21<47 47> 374 20<77 77> 416 21<77 77 479 479> 697 20<82 82> 742 20<525 525>
LayerCount: 2
Fore
SplineSet
139 92 m 1x9e
 400 92 l 1
 421 66 444 36 465 10 c 0
 468 7 470 5 470 3 c 0
 470 0 467 -2 460 -2 c 2
 288 -2 l 1
 146 -2 l 1
 75 -2 l 1x9e
 68 7 61 15 54 24 c 0
 51 27 47 30 47 35 c 2
 47 36 l 1x5e
 139 92 l 1x9e
77 394 m 1
 151 342 l 1
 139 109 l 1
 47 59 l 1x3e
 63 363 l 2
 66 373 74 384 77 394 c 1
82 717 m 1
 168 661 l 1
 156 463 l 1
 77 416 l 1
 66 440 l 1
 82 717 l 1
475 388 m 1
 509 350 l 1
 490 62 l 1
 472 36 l 1x5e
 406 115 l 1
 418 342 l 1
 475 388 l 1
525 762 m 1
 527 757 530 751 530 746 c 0
 525 647 519 552 514 453 c 1
 479 416 l 1
 423 458 l 1
 435 672 l 1
 525 762 l 1
EndSplineSet
Validated: 1
EndChar

StartChar: V
Encoding: 86 86 87
Width: 585
Flags: MW
HStem: -2 94<139 146 75 400 146 288 288 400 139 460> 36 21<47 47 472 472> 59 21<47 47> 374 20<77 77> 416 21<77 77 479 479> 697 20<82 82> 742 20<525 525>
LayerCount: 2
Fore
SplineSet
139 92 m 1x9e
 400 92 l 1
 421 66 444 36 465 10 c 0
 468 7 470 5 470 3 c 0
 470 0 467 -2 460 -2 c 2
 288 -2 l 1
 146 -2 l 1
 75 -2 l 1x9e
 68 7 61 15 54 24 c 0
 51 27 47 30 47 35 c 2
 47 36 l 1x5e
 139 92 l 1x9e
77 394 m 1
 151 342 l 1
 139 109 l 1
 47 59 l 1x3e
 63 363 l 2
 66 373 74 384 77 394 c 1
82 717 m 1
 168 661 l 1
 156 463 l 1
 77 416 l 1
 66 440 l 1
 82 717 l 1
475 388 m 1
 509 350 l 1
 490 62 l 1
 472 36 l 1x5e
 406 115 l 1
 418 342 l 1
 475 388 l 1
525 762 m 1
 527 757 530 751 530 746 c 0
 525 647 519 552 514 453 c 1
 479 416 l 1
 423 458 l 1
 435 672 l 1
 525 762 l 1
EndSplineSet
Validated: 1
EndChar

StartChar: W
Encoding: 87 87 88
Width: 585
Flags: MW
HStem: -2 94<139 146 75 400 146 288 288 400 139 460> 36 21<47 47 472 472> 59 21<47 47> 355 95<172 405 172 406 158 405> 374 20<77 77> 416 21<77 77 479 479> 697 20<82 82> 742 20<525 525>
LayerCount: 2
Fore
SplineSet
139 92 m 1x83
 400 92 l 1
 421 66 444 36 465 10 c 0
 468 7 470 5 470 3 c 0
 470 0 467 -2 460 -2 c 2
 288 -2 l 1
 146 -2 l 1
 75 -2 l 1x83
 68 7 61 15 54 24 c 0
 51 27 47 30 47 35 c 2
 47 36 l 1x43
 139 92 l 1x83
77 394 m 1x2b
 151 342 l 1
 139 109 l 1
 47 59 l 1
 63 363 l 2
 66 373 74 384 77 394 c 1x2b
82 717 m 1
 168 661 l 1
 156 463 l 1
 77 416 l 1x07
 66 440 l 1
 82 717 l 1
172 450 m 1x13
 405 450 l 1
 470 399 l 1
 406 355 l 1
 158 355 l 1
 137 374 113 389 92 406 c 1
 172 450 l 1x13
475 388 m 1
 509 350 l 1
 490 62 l 1
 472 36 l 1x43
 406 115 l 1
 418 342 l 1
 475 388 l 1
525 762 m 1
 527 757 530 751 530 746 c 0
 525 647 519 552 514 453 c 1
 479 416 l 1x07
 423 458 l 1
 435 672 l 1
 525 762 l 1
EndSplineSet
Validated: 1
EndChar

StartChar: X
Encoding: 88 88 89
Width: 585
Flags: MW
HStem: -2 94<139 146 75 400 146 288 288 400 139 460> 355 95<172 405 172 406 158 405> 685 95<155 423 155 168>
LayerCount: 2
Fore
SplineSet
139 92 m 1
 400 92 l 1
 421 66 444 36 465 10 c 0
 468 7 470 5 470 3 c 0
 470 0 467 -2 460 -2 c 2
 288 -2 l 1
 146 -2 l 1
 75 -2 l 1
 68 7 61 15 54 24 c 0
 51 27 47 30 47 35 c 2
 47 36 l 1
 139 92 l 1
155 780 m 1
 514 775 l 1
 423 685 l 1
 168 685 l 1
 88 735 l 1
 155 780 l 1
172 450 m 1
 405 450 l 1
 470 399 l 1
 406 355 l 1
 158 355 l 1
 137 374 113 389 92 406 c 1
 172 450 l 1
EndSplineSet
Validated: 1
EndChar

StartChar: Y
Encoding: 89 89 90
Width: 585
Flags: MW
HStem: -2 94<139 146 75 400 146 288 288 400 139 460> 36 21<47 47 472 472> 355 95<172 405 172 406 158 405> 416 21<77 77 479 479> 697 20<82 82> 742 20<525 525>
LayerCount: 2
Fore
SplineSet
139 92 m 1x84
 400 92 l 1
 421 66 444 36 465 10 c 0
 468 7 470 5 470 3 c 0
 470 0 467 -2 460 -2 c 2
 288 -2 l 1
 146 -2 l 1
 75 -2 l 1x84
 68 7 61 15 54 24 c 0
 51 27 47 30 47 35 c 2
 47 36 l 1x44
 139 92 l 1x84
82 717 m 1x1c
 168 661 l 1
 156 463 l 1
 77 416 l 1
 66 440 l 1
 82 717 l 1x1c
172 450 m 1x24
 405 450 l 1
 470 399 l 1
 406 355 l 1
 158 355 l 1
 137 374 113 389 92 406 c 1
 172 450 l 1x24
475 388 m 1
 509 350 l 1
 490 62 l 1
 472 36 l 1x44
 406 115 l 1
 418 342 l 1
 475 388 l 1
525 762 m 1
 527 757 530 751 530 746 c 0
 525 647 519 552 514 453 c 1
 479 416 l 1x14
 423 458 l 1
 435 672 l 1
 525 762 l 1
EndSplineSet
Validated: 1
EndChar

StartChar: Z
Encoding: 90 90 91
Width: 585
Flags: MW
HStem: 59 21<47 47> 355 95<172 405 172 406 158 405> 374 20<77 77> 416 21<479 479> 685 95<155 423 155 168> 742 20<525 525>
LayerCount: 2
Fore
SplineSet
77 394 m 1xa0
 151 342 l 1
 139 109 l 1
 47 59 l 1
 63 363 l 2
 66 373 74 384 77 394 c 1xa0
155 780 m 1x88
 514 775 l 1
 423 685 l 1
 168 685 l 1
 88 735 l 1
 155 780 l 1x88
172 450 m 1xc0
 405 450 l 1
 470 399 l 1
 406 355 l 1
 158 355 l 1
 137 374 113 389 92 406 c 1
 172 450 l 1xc0
525 762 m 1x94
 527 757 530 751 530 746 c 0
 525 647 519 552 514 453 c 1
 479 416 l 1
 423 458 l 1
 435 672 l 1
 525 762 l 1x94
EndSplineSet
Validated: 1
EndChar

StartChar: bracketleft
Encoding: 91 91 92
Width: 585
Flags: MW
HStem: -2 94<139 146 75 400 146 288 288 400 139 460> 59 21<47 47> 374 20<77 77> 416 21<77 77> 685 95<155 423 155 168> 697 20<82 82>
LayerCount: 2
Fore
SplineSet
139 92 m 1xb0
 400 92 l 1
 421 66 444 36 465 10 c 0
 468 7 470 5 470 3 c 0
 470 0 467 -2 460 -2 c 2
 288 -2 l 1
 146 -2 l 1
 75 -2 l 1
 68 7 61 15 54 24 c 0
 51 27 47 30 47 35 c 2
 47 36 l 1
 139 92 l 1xb0
77 394 m 1
 151 342 l 1
 139 109 l 1
 47 59 l 1x70
 63 363 l 2
 66 373 74 384 77 394 c 1
82 717 m 1x34
 168 661 l 1
 156 463 l 1
 77 416 l 1
 66 440 l 1
 82 717 l 1x34
155 780 m 1x38
 514 775 l 1
 423 685 l 1
 168 685 l 1
 88 735 l 1
 155 780 l 1x38
EndSplineSet
Validated: 1
EndChar

StartChar: backslash
Encoding: 92 92 93
Width: 585
Flags: MW
HStem: 36 21G<472 472> 355 95<172 405 172 406 158 405> 416 21G<77 77> 697 20G<82 82> 697 20G<82 82>
LayerCount: 2
Fore
SplineSet
82 717 m 1xb0
 168 661 l 1
 156 463 l 1
 77 416 l 1
 66 440 l 1
 82 717 l 1xb0
172 450 m 1xc0
 405 450 l 1
 470 399 l 1
 406 355 l 1
 158 355 l 1
 137 374 113 389 92 406 c 1
 172 450 l 1xc0
475 388 m 1
 509 350 l 1
 490 62 l 1
 472 36 l 1
 406 115 l 1
 418 342 l 1
 475 388 l 1
EndSplineSet
Validated: 1
EndChar

StartChar: bracketright
Encoding: 93 93 94
Width: 585
Flags: MW
HStem: -2 94<139 146 75 400 146 288 288 400 139 460> 36 21<47 47 472 472> 416 21<479 479> 685 95<155 423 155 168> 742 20<525 525>
LayerCount: 2
Fore
SplineSet
139 92 m 1xa0
 400 92 l 1
 421 66 444 36 465 10 c 0
 468 7 470 5 470 3 c 0
 470 0 467 -2 460 -2 c 2
 288 -2 l 1
 146 -2 l 1
 75 -2 l 1xa0
 68 7 61 15 54 24 c 0
 51 27 47 30 47 35 c 2
 47 36 l 1x60
 139 92 l 1xa0
155 780 m 1x30
 514 775 l 1
 423 685 l 1
 168 685 l 1
 88 735 l 1
 155 780 l 1x30
475 388 m 1
 509 350 l 1
 490 62 l 1
 472 36 l 1x60
 406 115 l 1
 418 342 l 1
 475 388 l 1
525 762 m 1x28
 527 757 530 751 530 746 c 0
 525 647 519 552 514 453 c 1
 479 416 l 1
 423 458 l 1
 435 672 l 1
 525 762 l 1x28
EndSplineSet
Validated: 1
EndChar

StartChar: asciicircum
Encoding: 94 94 95
Width: 585
Flags: MW
HStem: 416 21G<77 77 479 479> 685 95<155 423 155 168> 697 20G<82 82> 697 20G<82 82> 742 20G<525 525>
LayerCount: 2
Fore
SplineSet
82 717 m 1xa0
 168 661 l 1
 156 463 l 1
 77 416 l 1
 66 440 l 1
 82 717 l 1xa0
155 780 m 1xc0
 514 775 l 1
 423 685 l 1
 168 685 l 1
 88 735 l 1
 155 780 l 1xc0
525 762 m 1x88
 527 757 530 751 530 746 c 0
 525 647 519 552 514 453 c 1
 479 416 l 1
 423 458 l 1
 435 672 l 1
 525 762 l 1x88
EndSplineSet
Validated: 1
EndChar

StartChar: underscore
Encoding: 95 95 96
Width: 585
Flags: MW
HStem: 355 95<172 405 172 406 158 405>
LayerCount: 2
Fore
SplineSet
172 450 m 1
 405 450 l 1
 470 399 l 1
 406 355 l 1
 158 355 l 1
 137 374 113 389 92 406 c 1
 172 450 l 1
EndSplineSet
Validated: 1
EndChar

StartChar: grave
Encoding: 96 96 97
Width: 585
Flags: MW
HStem: 416 21<479 479> 742 20<525 525>
VStem: 423 107
LayerCount: 2
Fore
SplineSet
525 762 m 1
 527 757 530 751 530 746 c 0
 525 647 519 552 514 453 c 1
 479 416 l 1
 423 458 l 1
 435 672 l 1
 525 762 l 1
EndSplineSet
Validated: 1
EndChar

StartChar: a
Encoding: 97 97 98
Width: 585
Flags: MW
HStem: -2 94<139 146 75 400 146 288 288 400 139 460> 36 21G<47 47 472 472> 59 21G<47 47> 355 95<172 405 172 406 158 405> 374 20G<77 77> 416 21G<479 479> 685 95<155 423 155 168> 742 20G<525 525>
LayerCount: 2
Fore
SplineSet
139 92 m 1x80
 400 92 l 1
 421 66 444 36 465 10 c 0
 468 7 470 5 470 3 c 0
 470 0 467 -2 460 -2 c 2
 288 -2 l 1
 146 -2 l 1
 75 -2 l 1x80
 68 7 61 15 54 24 c 0
 51 27 47 30 47 35 c 2
 47 36 l 1x40
 139 92 l 1x80
77 394 m 1x28
 151 342 l 1
 139 109 l 1
 47 59 l 1
 63 363 l 2
 66 373 74 384 77 394 c 1x28
155 780 m 1x02
 514 775 l 1
 423 685 l 1
 168 685 l 1
 88 735 l 1
 155 780 l 1x02
172 450 m 1x10
 405 450 l 1
 470 399 l 1
 406 355 l 1
 158 355 l 1
 137 374 113 389 92 406 c 1
 172 450 l 1x10
475 388 m 1
 509 350 l 1
 490 62 l 1
 472 36 l 1x40
 406 115 l 1
 418 342 l 1
 475 388 l 1
525 762 m 1x05
 527 757 530 751 530 746 c 0
 525 647 519 552 514 453 c 1
 479 416 l 1
 423 458 l 1
 435 672 l 1
 525 762 l 1x05
EndSplineSet
Validated: 1
EndChar

StartChar: b
Encoding: 98 98 99
Width: 585
Flags: MW
HStem: -2 94<139 146 75 400 146 288 288 400 139 460> 36 21G<47 47 472 472> 59 21G<47 47> 355 95<172 405 172 406 158 405> 374 20G<77 77> 416 21G<77 77> 697 20G<82 82>
LayerCount: 2
Fore
SplineSet
139 92 m 1x82
 400 92 l 1
 421 66 444 36 465 10 c 0
 468 7 470 5 470 3 c 0
 470 0 467 -2 460 -2 c 2
 288 -2 l 1
 146 -2 l 1
 75 -2 l 1x82
 68 7 61 15 54 24 c 0
 51 27 47 30 47 35 c 2
 47 36 l 1x42
 139 92 l 1x82
77 394 m 1x2a
 151 342 l 1
 139 109 l 1
 47 59 l 1
 63 363 l 2
 66 373 74 384 77 394 c 1x2a
82 717 m 1
 168 661 l 1
 156 463 l 1
 77 416 l 1x06
 66 440 l 1
 82 717 l 1
172 450 m 1x12
 405 450 l 1
 470 399 l 1
 406 355 l 1
 158 355 l 1
 137 374 113 389 92 406 c 1
 172 450 l 1x12
475 388 m 1
 509 350 l 1
 490 62 l 1
 472 36 l 1x42
 406 115 l 1
 418 342 l 1
 475 388 l 1
EndSplineSet
Validated: 1
EndChar

StartChar: c
Encoding: 99 99 100
Width: 585
Flags: W
LayerCount: 2
Fore
SplineSet
139 92 m 1
 400 92 l 1
 421 66 444 36 465 10 c 0
 468 7 470 5 470 3 c 0
 470 0 467 -2 460 -2 c 2
 288 -2 l 1
 146 -2 l 1
 75 -2 l 1
 68 7 61 15 54 24 c 0
 51 27 47 30 47 35 c 2
 47 36 l 1
 139 92 l 1
77 394 m 1
 151 342 l 1
 139 109 l 1
 47 59 l 1
 63 363 l 2
 66 373 74 384 77 394 c 1
172 450 m 1
 405 450 l 1
 470 399 l 1
 406 355 l 1
 158 355 l 1
 137 374 113 389 92 406 c 1
 172 450 l 1
EndSplineSet
Validated: 1
EndChar

StartChar: d
Encoding: 100 100 101
Width: 585
Flags: MW
HStem: -2 94<139 146 75 400 146 288 288 400 139 460> 36 21G<47 47 472 472> 59 21G<47 47> 355 95<172 405 172 406 158 405> 374 20G<77 77> 416 21G<479 479> 742 20G<525 525>
LayerCount: 2
Fore
SplineSet
139 92 m 1x82
 400 92 l 1
 421 66 444 36 465 10 c 0
 468 7 470 5 470 3 c 0
 470 0 467 -2 460 -2 c 2
 288 -2 l 1
 146 -2 l 1
 75 -2 l 1x82
 68 7 61 15 54 24 c 0
 51 27 47 30 47 35 c 2
 47 36 l 1x42
 139 92 l 1x82
77 394 m 1x2a
 151 342 l 1
 139 109 l 1
 47 59 l 1
 63 363 l 2
 66 373 74 384 77 394 c 1x2a
172 450 m 1x12
 405 450 l 1
 470 399 l 1
 406 355 l 1
 158 355 l 1
 137 374 113 389 92 406 c 1
 172 450 l 1x12
475 388 m 1
 509 350 l 1
 490 62 l 1
 472 36 l 1x42
 406 115 l 1
 418 342 l 1
 475 388 l 1
525 762 m 1
 527 757 530 751 530 746 c 0
 525 647 519 552 514 453 c 1
 479 416 l 1x06
 423 458 l 1
 435 672 l 1
 525 762 l 1
EndSplineSet
Validated: 1
EndChar

StartChar: e
Encoding: 101 101 102
Width: 585
Flags: MW
HStem: -2 94<139 146 75 400 146 288 288 400 139 460> 59 21G<47 47> 355 95<172 405 172 406 158 405> 374 20G<77 77> 416 21G<77 77 479 479> 685 95<155 423 155 168> 697 20G<82 82> 742 20G<525 525>
LayerCount: 2
Fore
SplineSet
139 92 m 1x80
 400 92 l 1
 421 66 444 36 465 10 c 0
 468 7 470 5 470 3 c 0
 470 0 467 -2 460 -2 c 2
 288 -2 l 1
 146 -2 l 1
 75 -2 l 1
 68 7 61 15 54 24 c 0
 51 27 47 30 47 35 c 2
 47 36 l 1
 139 92 l 1x80
77 394 m 1x50
 151 342 l 1
 139 109 l 1
 47 59 l 1
 63 363 l 2
 66 373 74 384 77 394 c 1x50
82 717 m 1x0a
 168 661 l 1
 156 463 l 1
 77 416 l 1
 66 440 l 1
 82 717 l 1x0a
155 780 m 1x04
 514 775 l 1
 423 685 l 1
 168 685 l 1
 88 735 l 1
 155 780 l 1x04
172 450 m 1x20
 405 450 l 1
 470 399 l 1
 406 355 l 1
 158 355 l 1
 137 374 113 389 92 406 c 1
 172 450 l 1x20
525 762 m 1x09
 527 757 530 751 530 746 c 0
 525 647 519 552 514 453 c 1
 479 416 l 1
 423 458 l 1
 435 672 l 1
 525 762 l 1x09
EndSplineSet
Validated: 1
EndChar

StartChar: f
Encoding: 102 102 103
Width: 585
Flags: MW
HStem: 59 21G<47 47> 355 95<172 405 172 406 158 405> 374 20G<77 77> 416 21G<77 77> 685 95<155 423 155 168> 697 20G<82 82>
LayerCount: 2
Fore
SplineSet
77 394 m 1xa0
 151 342 l 1
 139 109 l 1
 47 59 l 1
 63 363 l 2
 66 373 74 384 77 394 c 1xa0
82 717 m 1x94
 168 661 l 1
 156 463 l 1
 77 416 l 1
 66 440 l 1
 82 717 l 1x94
155 780 m 1x88
 514 775 l 1
 423 685 l 1
 168 685 l 1
 88 735 l 1
 155 780 l 1x88
172 450 m 1xc0
 405 450 l 1
 470 399 l 1
 406 355 l 1
 158 355 l 1
 137 374 113 389 92 406 c 1
 172 450 l 1xc0
EndSplineSet
Validated: 1
EndChar

StartChar: g
Encoding: 103 103 104
Width: 585
Flags: MW
HStem: -2 94<139 146 75 400 146 288 288 400 139 460> 36 21<47 47 472 472> 355 95<172 405 172 406 158 405> 416 21<77 77 479 479> 685 95<155 423 155 168> 697 20<82 82> 742 20<525 525>
LayerCount: 2
Fore
SplineSet
139 92 m 1x80
 400 92 l 1
 421 66 444 36 465 10 c 0
 468 7 470 5 470 3 c 0
 470 0 467 -2 460 -2 c 2
 288 -2 l 1
 146 -2 l 1
 75 -2 l 1x80
 68 7 61 15 54 24 c 0
 51 27 47 30 47 35 c 2
 47 36 l 1x40
 139 92 l 1x80
82 717 m 1x14
 168 661 l 1
 156 463 l 1
 77 416 l 1
 66 440 l 1
 82 717 l 1x14
155 780 m 1x08
 514 775 l 1
 423 685 l 1
 168 685 l 1
 88 735 l 1
 155 780 l 1x08
172 450 m 1x20
 405 450 l 1
 470 399 l 1
 406 355 l 1
 158 355 l 1
 137 374 113 389 92 406 c 1
 172 450 l 1x20
475 388 m 1
 509 350 l 1
 490 62 l 1
 472 36 l 1x40
 406 115 l 1
 418 342 l 1
 475 388 l 1
525 762 m 1x12
 527 757 530 751 530 746 c 0
 525 647 519 552 514 453 c 1
 479 416 l 1
 423 458 l 1
 435 672 l 1
 525 762 l 1x12
EndSplineSet
Validated: 1
EndChar

StartChar: h
Encoding: 104 104 105
Width: 585
Flags: MW
HStem: 36 21G<472 472> 59 21G<47 47> 355 95<172 405 172 406 158 405> 374 20G<77 77> 416 21G<77 77> 697 20G<82 82>
LayerCount: 2
Fore
SplineSet
77 394 m 1xd4
 151 342 l 1
 139 109 l 1
 47 59 l 1
 63 363 l 2
 66 373 74 384 77 394 c 1xd4
82 717 m 1
 168 661 l 1
 156 463 l 1
 77 416 l 1xcc
 66 440 l 1
 82 717 l 1
172 450 m 1xe4
 405 450 l 1
 470 399 l 1
 406 355 l 1
 158 355 l 1
 137 374 113 389 92 406 c 1
 172 450 l 1xe4
475 388 m 1
 509 350 l 1
 490 62 l 1
 472 36 l 1
 406 115 l 1
 418 342 l 1
 475 388 l 1
EndSplineSet
Validated: 1
EndChar

StartChar: i
Encoding: 105 105 106
Width: 585
Flags: MW
HStem: 36 21G<472 472>
VStem: 406 103
LayerCount: 2
Fore
SplineSet
475 388 m 1
 509 350 l 1
 490 62 l 1
 472 36 l 1
 406 115 l 1
 418 342 l 1
 475 388 l 1
EndSplineSet
Validated: 1
EndChar

StartChar: j
Encoding: 106 106 107
Width: 585
Flags: MW
HStem: -2 94<139 146 75 400 146 288 288 400 139 460> 36 21G<47 47 472 472> 59 21G<47 47> 374 20G<77 77> 416 21G<479 479> 742 20G<525 525>
LayerCount: 2
Fore
SplineSet
139 92 m 1x9c
 400 92 l 1
 421 66 444 36 465 10 c 0
 468 7 470 5 470 3 c 0
 470 0 467 -2 460 -2 c 2
 288 -2 l 1
 146 -2 l 1
 75 -2 l 1x9c
 68 7 61 15 54 24 c 0
 51 27 47 30 47 35 c 2
 47 36 l 1x5c
 139 92 l 1x9c
77 394 m 1
 151 342 l 1
 139 109 l 1
 47 59 l 1x3c
 63 363 l 2
 66 373 74 384 77 394 c 1
475 388 m 1
 509 350 l 1
 490 62 l 1
 472 36 l 1x5c
 406 115 l 1
 418 342 l 1
 475 388 l 1
525 762 m 1
 527 757 530 751 530 746 c 0
 525 647 519 552 514 453 c 1
 479 416 l 1
 423 458 l 1
 435 672 l 1
 525 762 l 1
EndSplineSet
Validated: 1
EndChar

StartChar: k
Encoding: 107 107 108
Width: 585
Flags: MW
HStem: 36 21G<472 472> 59 21G<47 47> 355 95<172 405 172 406 158 405> 374 20G<77 77> 416 21G<77 77> 685 95<155 423 155 168> 697 20G<82 82>
LayerCount: 2
Fore
SplineSet
77 394 m 1xd0
 151 342 l 1
 139 109 l 1
 47 59 l 1
 63 363 l 2
 66 373 74 384 77 394 c 1xd0
82 717 m 1xca
 168 661 l 1
 156 463 l 1
 77 416 l 1
 66 440 l 1
 82 717 l 1xca
155 780 m 1xc4
 514 775 l 1
 423 685 l 1
 168 685 l 1
 88 735 l 1
 155 780 l 1xc4
172 450 m 1xe0
 405 450 l 1
 470 399 l 1
 406 355 l 1
 158 355 l 1
 137 374 113 389 92 406 c 1
 172 450 l 1xe0
475 388 m 1
 509 350 l 1
 490 62 l 1
 472 36 l 1
 406 115 l 1
 418 342 l 1
 475 388 l 1
EndSplineSet
Validated: 1
EndChar

StartChar: l
Encoding: 108 108 109
Width: 585
Flags: MW
HStem: -2 94<139 146 75 400 146 288 288 400 139 460> 59 21G<47 47> 374 20G<77 77> 416 21G<77 77> 697 20G<82 82>
LayerCount: 2
Fore
SplineSet
139 92 m 1xb8
 400 92 l 1
 421 66 444 36 465 10 c 0
 468 7 470 5 470 3 c 0
 470 0 467 -2 460 -2 c 2
 288 -2 l 1
 146 -2 l 1
 75 -2 l 1
 68 7 61 15 54 24 c 0
 51 27 47 30 47 35 c 2
 47 36 l 1
 139 92 l 1xb8
77 394 m 1
 151 342 l 1
 139 109 l 1
 47 59 l 1x78
 63 363 l 2
 66 373 74 384 77 394 c 1
82 717 m 1
 168 661 l 1
 156 463 l 1
 77 416 l 1
 66 440 l 1
 82 717 l 1
EndSplineSet
Validated: 1
EndChar

StartChar: m
Encoding: 109 109 110
Width: 585
Flags: MW
HStem: 59 21G<47 47> 355 95<172 405 172 406 158 405> 374 20G<77 77> 416 21G<77 77 479 479> 697 20G<82 82> 742 20G<525 525>
LayerCount: 2
Fore
SplineSet
77 394 m 1xac
 151 342 l 1
 139 109 l 1
 47 59 l 1
 63 363 l 2
 66 373 74 384 77 394 c 1xac
82 717 m 1
 168 661 l 1
 156 463 l 1
 77 416 l 1x9c
 66 440 l 1
 82 717 l 1
172 450 m 1xcc
 405 450 l 1
 470 399 l 1
 406 355 l 1
 158 355 l 1
 137 374 113 389 92 406 c 1
 172 450 l 1xcc
525 762 m 1
 527 757 530 751 530 746 c 0
 525 647 519 552 514 453 c 1
 479 416 l 1x9c
 423 458 l 1
 435 672 l 1
 525 762 l 1
EndSplineSet
Validated: 1
EndChar

StartChar: n
Encoding: 110 110 111
Width: 585
Flags: MW
HStem: 36 21G<472 472> 59 21G<47 47> 355 95<172 405 172 406 158 405> 374 20G<77 77>
LayerCount: 2
Fore
SplineSet
77 394 m 1xd0
 151 342 l 1
 139 109 l 1
 47 59 l 1
 63 363 l 2
 66 373 74 384 77 394 c 1xd0
172 450 m 1xe0
 405 450 l 1
 470 399 l 1
 406 355 l 1
 158 355 l 1
 137 374 113 389 92 406 c 1
 172 450 l 1xe0
475 388 m 1
 509 350 l 1
 490 62 l 1
 472 36 l 1
 406 115 l 1
 418 342 l 1
 475 388 l 1
EndSplineSet
Validated: 1
EndChar

StartChar: o
Encoding: 111 111 112
Width: 585
Flags: MW
HStem: -2 94<139 146 75 400 146 288 288 400 139 460> 36 21G<47 47 472 472> 59 21G<47 47> 355 95<172 405 172 406 158 405> 374 20G<77 77>
LayerCount: 2
Fore
SplineSet
139 92 m 1x80
 400 92 l 1
 421 66 444 36 465 10 c 0
 468 7 470 5 470 3 c 0
 470 0 467 -2 460 -2 c 2
 288 -2 l 1
 146 -2 l 1
 75 -2 l 1x80
 68 7 61 15 54 24 c 0
 51 27 47 30 47 35 c 2
 47 36 l 1x40
 139 92 l 1x80
77 394 m 1x28
 151 342 l 1
 139 109 l 1
 47 59 l 1
 63 363 l 2
 66 373 74 384 77 394 c 1x28
172 450 m 1x10
 405 450 l 1
 470 399 l 1
 406 355 l 1
 158 355 l 1
 137 374 113 389 92 406 c 1
 172 450 l 1x10
475 388 m 1
 509 350 l 1
 490 62 l 1
 472 36 l 1x40
 406 115 l 1
 418 342 l 1
 475 388 l 1
EndSplineSet
Validated: 1
EndChar

StartChar: p
Encoding: 112 112 113
Width: 585
Flags: MW
HStem: 59 21G<47 47> 355 95<172 405 172 406 158 405> 374 20G<77 77> 416 21G<77 77 479 479> 685 95<155 423 155 168> 697 20G<82 82> 742 20G<525 525>
LayerCount: 2
Fore
SplineSet
77 394 m 1xa0
 151 342 l 1
 139 109 l 1
 47 59 l 1
 63 363 l 2
 66 373 74 384 77 394 c 1xa0
82 717 m 1x94
 168 661 l 1
 156 463 l 1
 77 416 l 1
 66 440 l 1
 82 717 l 1x94
155 780 m 1x88
 514 775 l 1
 423 685 l 1
 168 685 l 1
 88 735 l 1
 155 780 l 1x88
172 450 m 1xc0
 405 450 l 1
 470 399 l 1
 406 355 l 1
 158 355 l 1
 137 374 113 389 92 406 c 1
 172 450 l 1xc0
525 762 m 1x92
 527 757 530 751 530 746 c 0
 525 647 519 552 514 453 c 1
 479 416 l 1
 423 458 l 1
 435 672 l 1
 525 762 l 1x92
EndSplineSet
Validated: 1
EndChar

StartChar: q
Encoding: 113 113 114
Width: 585
Flags: MW
HStem: 36 21G<472 472> 355 95<172 405 172 406 158 405> 416 21G<77 77 479 479> 685 95<155 423 155 168> 697 20G<82 82> 697 20G<82 82> 742 20G<525 525>
LayerCount: 2
Fore
SplineSet
82 717 m 1xa8
 168 661 l 1
 156 463 l 1
 77 416 l 1
 66 440 l 1
 82 717 l 1xa8
155 780 m 1x90
 514 775 l 1
 423 685 l 1
 168 685 l 1
 88 735 l 1
 155 780 l 1x90
172 450 m 1xc0
 405 450 l 1
 470 399 l 1
 406 355 l 1
 158 355 l 1
 137 374 113 389 92 406 c 1
 172 450 l 1xc0
475 388 m 1
 509 350 l 1
 490 62 l 1
 472 36 l 1
 406 115 l 1
 418 342 l 1
 475 388 l 1
525 762 m 1xa2
 527 757 530 751 530 746 c 0
 525 647 519 552 514 453 c 1
 479 416 l 1
 423 458 l 1
 435 672 l 1
 525 762 l 1xa2
EndSplineSet
Validated: 1
EndChar

StartChar: r
Encoding: 114 114 115
Width: 585
Flags: MW
HStem: 59 21G<47 47> 355 95<172 405 172 406 158 405> 374 20G<77 77>
LayerCount: 2
Fore
SplineSet
77 394 m 1xa0
 151 342 l 1
 139 109 l 1
 47 59 l 1
 63 363 l 2
 66 373 74 384 77 394 c 1xa0
172 450 m 1xc0
 405 450 l 1
 470 399 l 1
 406 355 l 1
 158 355 l 1
 137 374 113 389 92 406 c 1
 172 450 l 1xc0
EndSplineSet
Validated: 1
EndChar

StartChar: s
Encoding: 115 115 116
Width: 585
Flags: MW
HStem: -2 94<138 147 75 400 147 288 288 400 138 460> 36 21G<472 472> 356 94<171 404 171 406 158 404> 416 21G<77 77> 685 91<169 513> 697 20G<82 82> 697 20G<82 82>
LayerCount: 2
Fore
SplineSet
138 92 m 1x80
 400 92 l 1
 421 65 445 37 466 10 c 0
 469 7 471 5 471 3 c 0
 471 0 467 -2 460 -2 c 2
 288 -2 l 1
 147 -2 l 1
 75 -2 l 1
 68 6 61 15 54 23 c 0
 51 27 46 30 46 35 c 2
 46 37 l 1
 138 92 l 1x80
82 717 m 1x14
 168 662 l 1
 157 463 l 1
 77 416 l 1
 67 441 l 1
 82 717 l 1x14
155 779 m 1
 513 776 l 1
 423 685 l 1
 169 685 l 1x08
 89 736 l 1
 155 779 l 1
171 450 m 1x20
 404 450 l 1
 470 399 l 1
 406 356 l 1
 158 356 l 1
 136 374 114 389 92 406 c 1
 171 450 l 1x20
476 389 m 1
 508 351 l 1
 489 62 l 1
 472 36 l 1x40
 406 114 l 1
 419 342 l 1
 476 389 l 1
EndSplineSet
Validated: 1
EndChar

StartChar: t
Encoding: 116 116 117
Width: 585
Flags: MW
HStem: -2 94<139 146 75 400 146 288 288 400 139 460> 59 21G<47 47> 355 95<172 405 172 406 158 405> 374 20G<77 77> 416 21G<77 77> 697 20G<82 82>
LayerCount: 2
Fore
SplineSet
139 92 m 1x84
 400 92 l 1
 421 66 444 36 465 10 c 0
 468 7 470 5 470 3 c 0
 470 0 467 -2 460 -2 c 2
 288 -2 l 1
 146 -2 l 1
 75 -2 l 1
 68 7 61 15 54 24 c 0
 51 27 47 30 47 35 c 2
 47 36 l 1
 139 92 l 1x84
77 394 m 1x54
 151 342 l 1
 139 109 l 1
 47 59 l 1
 63 363 l 2
 66 373 74 384 77 394 c 1x54
82 717 m 1
 168 661 l 1
 156 463 l 1
 77 416 l 1x0c
 66 440 l 1
 82 717 l 1
172 450 m 1x24
 405 450 l 1
 470 399 l 1
 406 355 l 1
 158 355 l 1
 137 374 113 389 92 406 c 1
 172 450 l 1x24
EndSplineSet
Validated: 1
EndChar

StartChar: u
Encoding: 117 117 118
Width: 585
Flags: MW
HStem: -2 94<139 146 75 400 146 288 288 400 139 460> 36 21G<47 47 472 472> 59 21G<47 47> 374 20G<77 77>
LayerCount: 2
Fore
SplineSet
139 92 m 1x90
 400 92 l 1
 421 66 444 36 465 10 c 0
 468 7 470 5 470 3 c 0
 470 0 467 -2 460 -2 c 2
 288 -2 l 1
 146 -2 l 1
 75 -2 l 1x90
 68 7 61 15 54 24 c 0
 51 27 47 30 47 35 c 2
 47 36 l 1x50
 139 92 l 1x90
77 394 m 1
 151 342 l 1
 139 109 l 1
 47 59 l 1x30
 63 363 l 2
 66 373 74 384 77 394 c 1
475 388 m 1
 509 350 l 1
 490 62 l 1
 472 36 l 1x50
 406 115 l 1
 418 342 l 1
 475 388 l 1
EndSplineSet
Validated: 1
EndChar

StartChar: v
Encoding: 118 118 119
Width: 585
Flags: MW
HStem: -2 94<139 146 75 400 146 288 288 400 139 460> 36 21G<47 47 472 472> 59 21G<47 47> 374 20G<77 77> 416 21G<77 77 479 479> 697 20G<82 82> 742 20G<525 525>
LayerCount: 2
Fore
SplineSet
139 92 m 1x9e
 400 92 l 1
 421 66 444 36 465 10 c 0
 468 7 470 5 470 3 c 0
 470 0 467 -2 460 -2 c 2
 288 -2 l 1
 146 -2 l 1
 75 -2 l 1x9e
 68 7 61 15 54 24 c 0
 51 27 47 30 47 35 c 2
 47 36 l 1x5e
 139 92 l 1x9e
77 394 m 1
 151 342 l 1
 139 109 l 1
 47 59 l 1x3e
 63 363 l 2
 66 373 74 384 77 394 c 1
82 717 m 1
 168 661 l 1
 156 463 l 1
 77 416 l 1
 66 440 l 1
 82 717 l 1
475 388 m 1
 509 350 l 1
 490 62 l 1
 472 36 l 1x5e
 406 115 l 1
 418 342 l 1
 475 388 l 1
525 762 m 1
 527 757 530 751 530 746 c 0
 525 647 519 552 514 453 c 1
 479 416 l 1
 423 458 l 1
 435 672 l 1
 525 762 l 1
EndSplineSet
Validated: 1
EndChar

StartChar: w
Encoding: 119 119 120
Width: 585
Flags: MW
HStem: -2 94<139 146 75 400 146 288 288 400 139 460> 36 21G<47 47 472 472> 59 21G<47 47> 355 95<172 405 172 406 158 405> 374 20G<77 77> 416 21G<77 77 479 479> 697 20G<82 82> 742 20G<525 525>
LayerCount: 2
Fore
SplineSet
139 92 m 1x83
 400 92 l 1
 421 66 444 36 465 10 c 0
 468 7 470 5 470 3 c 0
 470 0 467 -2 460 -2 c 2
 288 -2 l 1
 146 -2 l 1
 75 -2 l 1x83
 68 7 61 15 54 24 c 0
 51 27 47 30 47 35 c 2
 47 36 l 1x43
 139 92 l 1x83
77 394 m 1x2b
 151 342 l 1
 139 109 l 1
 47 59 l 1
 63 363 l 2
 66 373 74 384 77 394 c 1x2b
82 717 m 1
 168 661 l 1
 156 463 l 1
 77 416 l 1x07
 66 440 l 1
 82 717 l 1
172 450 m 1x13
 405 450 l 1
 470 399 l 1
 406 355 l 1
 158 355 l 1
 137 374 113 389 92 406 c 1
 172 450 l 1x13
475 388 m 1
 509 350 l 1
 490 62 l 1
 472 36 l 1x43
 406 115 l 1
 418 342 l 1
 475 388 l 1
525 762 m 1
 527 757 530 751 530 746 c 0
 525 647 519 552 514 453 c 1
 479 416 l 1x07
 423 458 l 1
 435 672 l 1
 525 762 l 1
EndSplineSet
Validated: 1
EndChar

StartChar: x
Encoding: 120 120 121
Width: 585
Flags: MW
HStem: 36 21G<472 472> 59 21G<47 47> 355 95<172 405 172 406 158 405> 374 20G<77 77> 416 21G<77 77 479 479> 697 20G<82 82> 742 20G<525 525>
LayerCount: 2
Fore
SplineSet
77 394 m 1xd6
 151 342 l 1
 139 109 l 1
 47 59 l 1
 63 363 l 2
 66 373 74 384 77 394 c 1xd6
82 717 m 1
 168 661 l 1
 156 463 l 1
 77 416 l 1xce
 66 440 l 1
 82 717 l 1
172 450 m 1xe6
 405 450 l 1
 470 399 l 1
 406 355 l 1
 158 355 l 1
 137 374 113 389 92 406 c 1
 172 450 l 1xe6
475 388 m 1
 509 350 l 1
 490 62 l 1
 472 36 l 1
 406 115 l 1
 418 342 l 1
 475 388 l 1
525 762 m 1
 527 757 530 751 530 746 c 0
 525 647 519 552 514 453 c 1
 479 416 l 1xce
 423 458 l 1
 435 672 l 1
 525 762 l 1
EndSplineSet
Validated: 1
EndChar

StartChar: y
Encoding: 121 121 122
Width: 585
Flags: MW
HStem: -2 94<139 146 75 400 146 288 288 400 139 460> 36 21G<47 47 472 472> 355 95<172 405 172 406 158 405> 416 21G<77 77 479 479> 697 20G<82 82> 697 20G<82 82> 742 20G<525 525>
LayerCount: 2
Fore
SplineSet
139 92 m 1x82
 400 92 l 1
 421 66 444 36 465 10 c 0
 468 7 470 5 470 3 c 0
 470 0 467 -2 460 -2 c 2
 288 -2 l 1
 146 -2 l 1
 75 -2 l 1x82
 68 7 61 15 54 24 c 0
 51 27 47 30 47 35 c 2
 47 36 l 1x42
 139 92 l 1x82
82 717 m 1x1a
 168 661 l 1
 156 463 l 1
 77 416 l 1
 66 440 l 1
 82 717 l 1x1a
172 450 m 1x22
 405 450 l 1
 470 399 l 1
 406 355 l 1
 158 355 l 1
 137 374 113 389 92 406 c 1
 172 450 l 1x22
475 388 m 1
 509 350 l 1
 490 62 l 1
 472 36 l 1x42
 406 115 l 1
 418 342 l 1
 475 388 l 1
525 762 m 1
 527 757 530 751 530 746 c 0
 525 647 519 552 514 453 c 1
 479 416 l 1x12
 423 458 l 1
 435 672 l 1
 525 762 l 1
EndSplineSet
Validated: 1
EndChar

StartChar: z
Encoding: 122 122 123
Width: 585
Flags: MW
HStem: 59 21<47 47> 355 95<172 405 172 406 158 405> 374 20<77 77> 416 21<479 479> 742 20<525 525>
LayerCount: 2
Fore
SplineSet
77 394 m 1xa8
 151 342 l 1
 139 109 l 1
 47 59 l 1
 63 363 l 2
 66 373 74 384 77 394 c 1xa8
172 450 m 1xc8
 405 450 l 1
 470 399 l 1
 406 355 l 1
 158 355 l 1
 137 374 113 389 92 406 c 1
 172 450 l 1xc8
525 762 m 1
 527 757 530 751 530 746 c 0
 525 647 519 552 514 453 c 1
 479 416 l 1x98
 423 458 l 1
 435 672 l 1
 525 762 l 1
EndSplineSet
Validated: 1
EndChar

StartChar: bar
Encoding: 124 124 125
Width: 585
Flags: MW
HStem: 36 21<472 472> 416 21<479 479> 742 20<525 525>
VStem: 406 124
LayerCount: 2
Fore
SplineSet
475 388 m 1
 509 350 l 1
 490 62 l 1
 472 36 l 1
 406 115 l 1
 418 342 l 1
 475 388 l 1
525 762 m 1
 527 757 530 751 530 746 c 0
 525 647 519 552 514 453 c 1
 479 416 l 1
 423 458 l 1
 435 672 l 1
 525 762 l 1
EndSplineSet
Validated: 1
EndChar

StartChar: asciitilde
Encoding: 126 126 127
Width: 585
Flags: MW
HStem: -2 94<139 146 75 400 146 288 288 400 139 460> 59 21G<47 47> 374 20G<77 77> 416 21G<479 479> 685 95<155 423 155 168> 742 20G<525 525>
LayerCount: 2
Fore
SplineSet
139 92 m 1xb0
 400 92 l 1
 421 66 444 36 465 10 c 0
 468 7 470 5 470 3 c 0
 470 0 467 -2 460 -2 c 2
 288 -2 l 1
 146 -2 l 1
 75 -2 l 1
 68 7 61 15 54 24 c 0
 51 27 47 30 47 35 c 2
 47 36 l 1
 139 92 l 1xb0
77 394 m 1
 151 342 l 1
 139 109 l 1
 47 59 l 1x70
 63 363 l 2
 66 373 74 384 77 394 c 1
155 780 m 1x38
 514 775 l 1
 423 685 l 1
 168 685 l 1
 88 735 l 1
 155 780 l 1x38
525 762 m 1x34
 527 757 530 751 530 746 c 0
 525 647 519 552 514 453 c 1
 479 416 l 1
 423 458 l 1
 435 672 l 1
 525 762 l 1x34
EndSplineSet
Validated: 1
EndChar

StartChar: degree
Encoding: 176 176 177
Width: 585
Flags: MW
HStem: 355 95<172 405 172 406 158 405> 416 21<77 77 479 479> 685 95<155 423 155 168> 697 20<82 82> 742 20<525 525>
LayerCount: 2
Fore
SplineSet
172 450 m 1x80
 405 450 l 1
 470 399 l 1
 406 355 l 1
 158 355 l 1
 137 374 113 389 92 406 c 1
 172 450 l 1x80
82 717 m 1x50
 168 661 l 1
 156 463 l 1
 77 416 l 1
 66 440 l 1
 82 717 l 1x50
155 780 m 1x60
 514 775 l 1
 423 685 l 1
 168 685 l 1
 88 735 l 1
 155 780 l 1x60
525 762 m 1x48
 527 757 530 751 530 746 c 0
 525 647 519 552 514 453 c 1
 479 416 l 1
 423 458 l 1
 435 672 l 1
 525 762 l 1x48
EndSplineSet
Validated: 1
EndChar

StartChar: uni00B5
Encoding: 181 181 182
Width: 585
Flags: MW
HStem: 59 21<47 47> 355 95<172 405 172 406 158 405> 374 20<77 77> 416 21<77 77 479 479> 697 20<82 82> 742 20<525 525>
LayerCount: 2
Fore
SplineSet
77 394 m 1xac
 151 342 l 1
 139 109 l 1
 47 59 l 1
 63 363 l 2
 66 373 74 384 77 394 c 1xac
82 717 m 1
 168 661 l 1
 156 463 l 1
 77 416 l 1x9c
 66 440 l 1
 82 717 l 1
172 450 m 1xcc
 405 450 l 1
 470 399 l 1
 406 355 l 1
 158 355 l 1
 137 374 113 389 92 406 c 1
 172 450 l 1xcc
525 762 m 1
 527 757 530 751 530 746 c 0
 525 647 519 552 514 453 c 1
 479 416 l 1x9c
 423 458 l 1
 435 672 l 1
 525 762 l 1
EndSplineSet
Validated: 1
EndChar

StartChar: agrave
Encoding: 224 224 225
Width: 585
Flags: MW
HStem: -2 94<139 146 75 400 146 288 288 400 139 460> 36 21<47 47 472 472> 59 21<47 47> 355 95<172 405 172 406 158 405> 374 20<77 77> 416 21<479 479> 685 95<155 423 155 168> 742 20<525 525>
LayerCount: 2
Fore
SplineSet
139 92 m 1x80
 400 92 l 1
 421 66 444 36 465 10 c 0
 468 7 470 5 470 3 c 0
 470 0 467 -2 460 -2 c 2
 288 -2 l 1
 146 -2 l 1
 75 -2 l 1x80
 68 7 61 15 54 24 c 0
 51 27 47 30 47 35 c 2
 47 36 l 1x40
 139 92 l 1x80
77 394 m 1x28
 151 342 l 1
 139 109 l 1
 47 59 l 1
 63 363 l 2
 66 373 74 384 77 394 c 1x28
155 780 m 1x02
 514 775 l 1
 423 685 l 1
 168 685 l 1
 88 735 l 1
 155 780 l 1x02
172 450 m 1x10
 405 450 l 1
 470 399 l 1
 406 355 l 1
 158 355 l 1
 137 374 113 389 92 406 c 1
 172 450 l 1x10
475 388 m 1
 509 350 l 1
 490 62 l 1
 472 36 l 1x40
 406 115 l 1
 418 342 l 1
 475 388 l 1
525 762 m 1x05
 527 757 530 751 530 746 c 0
 525 647 519 552 514 453 c 1
 479 416 l 1
 423 458 l 1
 435 672 l 1
 525 762 l 1x05
EndSplineSet
Validated: 1
EndChar

StartChar: aacute
Encoding: 225 225 226
Width: 585
Flags: MW
HStem: -2 94<139 146 75 400 146 288 288 400 139 460> 36 21<47 47 472 472> 59 21<47 47> 355 95<172 405 172 406 158 405> 374 20<77 77> 416 21<479 479> 685 95<155 423 155 168> 742 20<525 525>
LayerCount: 2
Fore
SplineSet
139 92 m 1x80
 400 92 l 1
 421 66 444 36 465 10 c 0
 468 7 470 5 470 3 c 0
 470 0 467 -2 460 -2 c 2
 288 -2 l 1
 146 -2 l 1
 75 -2 l 1x80
 68 7 61 15 54 24 c 0
 51 27 47 30 47 35 c 2
 47 36 l 1x40
 139 92 l 1x80
77 394 m 1x28
 151 342 l 1
 139 109 l 1
 47 59 l 1
 63 363 l 2
 66 373 74 384 77 394 c 1x28
155 780 m 1x02
 514 775 l 1
 423 685 l 1
 168 685 l 1
 88 735 l 1
 155 780 l 1x02
172 450 m 1x10
 405 450 l 1
 470 399 l 1
 406 355 l 1
 158 355 l 1
 137 374 113 389 92 406 c 1
 172 450 l 1x10
475 388 m 1
 509 350 l 1
 490 62 l 1
 472 36 l 1x40
 406 115 l 1
 418 342 l 1
 475 388 l 1
525 762 m 1x05
 527 757 530 751 530 746 c 0
 525 647 519 552 514 453 c 1
 479 416 l 1
 423 458 l 1
 435 672 l 1
 525 762 l 1x05
EndSplineSet
Validated: 1
EndChar

StartChar: eacute
Encoding: 233 233 234
Width: 585
Flags: MW
HStem: -2 94<139 146 75 400 146 288 288 400 139 460> 59 21<47 47> 355 95<172 405 172 406 158 405> 374 20<77 77> 416 21<77 77 479 479> 685 95<155 423 155 168> 697 20<82 82> 742 20<525 525>
LayerCount: 2
Fore
SplineSet
139 92 m 1x80
 400 92 l 1
 421 66 444 36 465 10 c 0
 468 7 470 5 470 3 c 0
 470 0 467 -2 460 -2 c 2
 288 -2 l 1
 146 -2 l 1
 75 -2 l 1
 68 7 61 15 54 24 c 0
 51 27 47 30 47 35 c 2
 47 36 l 1
 139 92 l 1x80
77 394 m 1x50
 151 342 l 1
 139 109 l 1
 47 59 l 1
 63 363 l 2
 66 373 74 384 77 394 c 1x50
82 717 m 1x0a
 168 661 l 1
 156 463 l 1
 77 416 l 1
 66 440 l 1
 82 717 l 1x0a
155 780 m 1x04
 514 775 l 1
 423 685 l 1
 168 685 l 1
 88 735 l 1
 155 780 l 1x04
172 450 m 1x20
 405 450 l 1
 470 399 l 1
 406 355 l 1
 158 355 l 1
 137 374 113 389 92 406 c 1
 172 450 l 1x20
525 762 m 1x09
 527 757 530 751 530 746 c 0
 525 647 519 552 514 453 c 1
 479 416 l 1
 423 458 l 1
 435 672 l 1
 525 762 l 1x09
EndSplineSet
Validated: 1
EndChar

